<svg width="24" height="24" viewBox="0 0 24 24" fill="none" xmlns="http://www.w3.org/2000/svg">
<path d="M14.4837 15.3811C14.4837 14.8614 14.3003 14.464 13.9334 14.1889C13.5666 13.9076 12.9062 13.6141 11.9524 13.3084C10.9986 12.9966 10.2435 12.6909 9.68716 12.3913C8.17086 11.572 7.4127 10.4684 7.4127 9.08052C7.4127 8.35905 7.61447 7.71706 8.018 7.15456C8.42765 6.58595 9.01155 6.14268 9.7697 5.82474C10.534 5.50681 11.3899 5.34784 12.3376 5.34784C13.2914 5.34784 14.1413 5.52209 14.8872 5.8706C15.6332 6.21299 16.2109 6.69906 16.6206 7.32882C17.0363 7.95857 17.2442 8.67393 17.2442 9.47488H14.4929C14.4929 8.86346 14.3003 8.38962 13.9151 8.05334C13.5299 7.71095 12.9888 7.53976 12.2918 7.53976C11.6192 7.53976 11.0965 7.68344 10.7235 7.9708C10.3505 8.25205 10.1641 8.62501 10.1641 9.08969C10.1641 9.52379 10.3811 9.88758 10.8152 10.1811C11.2554 10.4745 11.9005 10.7497 12.7503 11.0065C14.3156 11.4773 15.4558 12.0612 16.1712 12.7582C16.8865 13.4552 17.2442 14.3234 17.2442 15.3628C17.2442 16.5184 16.8071 17.4263 15.9327 18.0866C15.0584 18.7408 13.8815 19.0679 12.4018 19.0679C11.3747 19.0679 10.4392 18.8815 9.59545 18.5085C8.7517 18.1294 8.10666 17.6128 7.66033 16.9586C7.22011 16.3044 7 15.5462 7 14.6841H9.76053C9.76053 16.1576 10.641 16.8944 12.4018 16.8944C13.056 16.8944 13.5666 16.7629 13.9334 16.5C14.3003 16.231 14.4837 15.858 14.4837 15.3811Z" fill="#C9C9C9"/>
<path d="M11.334 3.78261C11.334 3.35039 11.6844 3 12.1166 3C12.5488 3 12.8992 3.35039 12.8992 3.78261V20.2174C12.8992 20.6496 12.5488 21 12.1166 21C11.6844 21 11.334 20.6496 11.334 20.2174V3.78261Z" fill="#868686"/>
</svg>
