<svg width="42" height="36" viewBox="0 0 42 36" fill="none" xmlns="http://www.w3.org/2000/svg">
<rect x="12.8203" width="16.0274" height="36" fill="#08BBF9"/>
<rect x="14.793" y="3.45215" width="4.43836" height="4.43836" fill="#C4EFFE"/>
<rect x="14.793" y="9.61621" width="4.43836" height="4.43836" fill="#C4EFFE"/>
<rect x="14.793" y="15.7803" width="4.43836" height="4.43836" fill="#C4EFFE"/>
<rect x="14.793" y="21.6978" width="4.43836" height="4.43836" fill="#C4EFFE"/>
<rect x="21.9453" y="3.45166" width="4.43836" height="4.43836" fill="#C4EFFE"/>
<rect x="21.9453" y="9.61621" width="4.43836" height="4.43836" fill="#C4EFFE"/>
<rect x="21.9453" y="15.7803" width="4.43836" height="4.43836" fill="#C4EFFE"/>
<rect x="21.9453" y="21.6978" width="4.43836" height="4.43836" fill="#C4EFFE"/>
<rect x="17.0117" y="28.356" width="7.89041" height="7.64384" fill="#C4EFFE"/>
<rect y="10.6025" width="12.8219" height="25.3973" fill="#0071BC"/>
<rect x="2.46484" y="28.3564" width="7.89041" height="7.64384" fill="#3D93CC"/>
<rect x="2.46484" y="23.6709" width="3.20548" height="3.20548" fill="#3D93CC"/>
<rect x="2.46484" y="18.9863" width="3.20548" height="3.20548" fill="#3D93CC"/>
<rect x="2.46484" y="14.3013" width="3.20548" height="3.20548" fill="#3D93CC"/>
<rect x="7.14844" y="23.6709" width="3.20548" height="3.20548" fill="#3D93CC"/>
<rect x="7.14844" y="18.9863" width="3.20548" height="3.20548" fill="#3D93CC"/>
<rect x="7.14844" y="14.3013" width="3.20548" height="3.20548" fill="#3D93CC"/>
<rect x="28.8477" y="10.603" width="12.8219" height="25.3973" fill="#0071BC"/>
<rect x="31.3125" y="28.3564" width="7.89041" height="7.64384" fill="#3D93CC"/>
<rect x="31.3086" y="23.6709" width="3.20548" height="3.20548" fill="#3D93CC"/>
<rect x="31.3086" y="18.9863" width="3.20548" height="3.20548" fill="#3D93CC"/>
<rect x="31.3086" y="14.3013" width="3.20548" height="3.20548" fill="#3D93CC"/>
<rect x="35.9922" y="23.6709" width="3.20548" height="3.20548" fill="#3D93CC"/>
<rect x="35.9922" y="18.9863" width="3.20548" height="3.20548" fill="#3D93CC"/>
<rect x="35.9922" y="14.3013" width="3.20548" height="3.20548" fill="#3D93CC"/>
</svg>
