<svg width="24" height="24" viewBox="0 0 24 24" fill="none" xmlns="http://www.w3.org/2000/svg">
<circle cx="15.4429" cy="9.41166" r="6.41166" fill="#08BBF9"/>
<path d="M16.512 12.6093C16.5621 12.796 16.4513 12.9879 16.2646 13.0379C16.0778 13.088 15.8859 12.9772 15.8359 12.7904L14.0062 5.96176C13.9561 5.77505 14.0669 5.58313 14.2536 5.5331C14.4404 5.48307 14.6323 5.59388 14.6823 5.78059L16.512 12.6093Z" fill="white"/>
<path d="M3.10479 7.52957C2.66837 5.90081 3.63495 4.22664 5.26371 3.79022C6.89247 3.35379 8.56664 4.32037 9.00306 5.94913L12.0059 17.1559C12.4423 18.7846 11.4757 20.4588 9.84698 20.8952C8.21821 21.3316 6.54405 20.3651 6.10762 18.7363L3.10479 7.52957Z" fill="#0071BC"/>
<path d="M8.97852 11.599C9.16523 11.549 9.35715 11.6598 9.40718 11.8465C9.45721 12.0332 9.34641 12.2251 9.15969 12.2752L6.13208 13.0864C5.94537 13.1364 5.75345 13.0256 5.70342 12.8389C5.65339 12.6522 5.76419 12.4603 5.95091 12.4103L8.97852 11.599Z" fill="white"/>
</svg>
