<svg width="80" height="80" viewBox="0 0 80 80" fill="none" xmlns="http://www.w3.org/2000/svg">
<path d="M74.983 4.77742C81.3529 11.1473 81.3529 21.475 74.983 27.8449L50.4112 52.4167L27.3438 29.3493L51.9156 4.77743C58.2855 -1.59247 68.6131 -1.59248 74.983 4.77742Z" fill="white"/>
<path fill-rule="evenodd" clip-rule="evenodd" d="M50.4112 49.5883L73.5688 26.4306C79.1577 20.8418 79.1577 11.7805 73.5688 6.19163C67.98 0.602786 58.9186 0.602789 53.3298 6.19164L30.1722 29.3493L50.4112 49.5883ZM50.4112 52.4167L27.3438 29.3493L51.9156 4.77743C58.2855 -1.59247 68.6131 -1.59248 74.983 4.77742C81.3529 11.1473 81.3529 21.475 74.983 27.8449L50.4112 52.4167Z" fill="#08BBF9"/>
<mask id="mask0" mask-type="alpha" maskUnits="userSpaceOnUse" x="26" y="0" width="54" height="54">
<path d="M74.2526 5.5074C80.6225 11.8773 80.6225 22.2049 74.2526 28.5748L49.6807 53.1467L26.6133 30.0792L51.1851 5.50741C57.555 -0.862492 67.8827 -0.862496 74.2526 5.5074Z" fill="white"/>
</mask>
<g mask="url(#mask0)">
<path fill-rule="evenodd" clip-rule="evenodd" d="M65.4418 36.2728V-0.362305H67.4418V36.2728H65.4418ZM59.2342 42.6441V1.2305H61.2342V42.6441H59.2342ZM53.0265 49.0152V2.82311H55.0265V49.0152H53.0265ZM71.6428 29.9013V2.82311H73.6428V29.9013H71.6428ZM46.8188 52.2014V9.19495H48.8188V52.2014H46.8188ZM40.6178 47.4226V15.566H42.6178V47.4226H40.6178ZM34.4102 39.4584V21.9372H36.4102V39.4584H34.4102Z" fill="#08BBF9"/>
</g>
<path d="M4.77742 74.9825C-1.59247 68.6126 -1.59247 58.285 4.77742 51.9151L29.3493 27.3433L52.4167 50.4107L27.8449 74.9825C21.475 81.3524 11.1473 81.3524 4.77742 74.9825Z" fill="#08BBF9"/>
</svg>
