<svg width="24" height="24" viewBox="0 0 24 24" fill="none" xmlns="http://www.w3.org/2000/svg">
<path d="M7.35547 6.08572V10.4572H12.2412" stroke="black"/>
<path d="M5.55664 21H19.4424V6.34286L16.0995 3H5.55664V21Z" fill="#08BBF9"/>
<path d="M16.0997 3.00006L19.4424 6.34291L16.0996 6.34293L16.0997 3.00006Z" fill="#0071BC"/>
<path fill-rule="evenodd" clip-rule="evenodd" d="M12.5 10.6714V10.2H13.0143V10.6714H12.5ZM12.5 12.5571V11.6143H13.0143V12.5571H12.5ZM12.5 14.4428V13.5H13.0143V14.4428H12.5ZM12.5 15.8571V15.3857H13.0143V15.8571H12.5Z" fill="white"/>
<path fill-rule="evenodd" clip-rule="evenodd" d="M12.0288 17.4L10.8496 16.2208L11.5769 15.4935L12.7561 16.6727L13.9353 15.4935L14.6626 16.2208L13.4834 17.4L14.6626 18.5792L13.9353 19.3065L12.7561 18.1273L11.5769 19.3065L10.8496 18.5792L12.0288 17.4Z" fill="#0071BC"/>
<path fill-rule="evenodd" clip-rule="evenodd" d="M7.35547 5.01428V4.54285H7.86975V5.01428H7.35547ZM7.35547 6.89999V5.95713H7.86975V6.89999H7.35547ZM7.35547 8.7857V7.84285H7.86975V8.7857H7.35547ZM7.35547 9.72856H7.86975V9.94285H8.06261V10.4571H7.35547V9.72856ZM9.86261 10.4571H8.96261V9.94285H9.86261V10.4571ZM11.2126 10.4571H10.7626V9.94285H11.2126V10.4571Z" fill="white"/>
<circle cx="12.7577" cy="10.2" r="1.54286" fill="#0071BC"/>
</svg>
