<svg width="24" height="24" viewBox="0 0 24 24" fill="none" xmlns="http://www.w3.org/2000/svg">
<path d="M18.3737 9.77697C18.422 8.9058 18.2923 8.03392 17.9925 7.21455C17.6926 6.39519 17.229 5.64552 16.6297 5.01132C16.0305 4.37712 15.3084 3.87168 14.5073 3.52588C13.7062 3.18007 12.8431 3.00114 11.9706 3.00001C11.0981 2.99888 10.2345 3.17557 9.43257 3.5193C8.63063 3.86303 7.90714 4.36659 7.30629 4.99924C6.70543 5.63189 6.23981 6.38035 5.93784 7.19894C5.63588 8.01752 5.5039 8.88906 5.54997 9.76035L7.91735 9.63517C7.88829 9.08555 7.97154 8.53578 8.16202 8.01941C8.3525 7.50303 8.64622 7.0309 9.02525 6.63182C9.40427 6.23274 9.86065 5.91509 10.3665 5.69826C10.8724 5.48143 11.4172 5.36997 11.9675 5.37069C12.5179 5.3714 13.0624 5.48427 13.5677 5.70241C14.073 5.92055 14.5286 6.23938 14.9066 6.63944C15.2845 7.0395 15.577 7.51239 15.7662 8.02926C15.9553 8.54612 16.0372 9.09611 16.0067 9.64565L18.3737 9.77697Z" fill="#08BBF9"/>
<path fill-rule="evenodd" clip-rule="evenodd" d="M4 9.83256C4 9.2158 4.49998 8.71582 5.11674 8.71582H19.076C19.6928 8.71582 20.1928 9.2158 20.1928 9.83256V19.8833C20.1928 20.5 19.6928 21 19.076 21H5.11674C4.49998 21 4 20.5 4 19.8833V9.83256ZM12.6415 15.1234C13.4497 14.9321 14.051 14.2059 14.051 13.3392C14.051 12.3266 13.2302 11.5058 12.2176 11.5058C11.205 11.5058 10.3841 12.3266 10.3841 13.3392C10.3841 14.2065 10.9863 14.9331 11.7953 15.1238V17.5703C11.7953 17.804 11.9848 17.9934 12.2184 17.9934C12.4521 17.9934 12.6415 17.804 12.6415 17.5703V15.1234Z" fill="#0071BC"/>
</svg>
