<svg width="24" height="24" viewBox="0 0 24 24" fill="none" xmlns="http://www.w3.org/2000/svg">
<ellipse cx="13.2767" cy="13.6061" rx="7.30204" ry="7.39394" fill="#08BBF9"/>
<mask id="mask0" mask-type="alpha" maskUnits="userSpaceOnUse" x="5" y="6" width="16" height="15">
<ellipse cx="13.2767" cy="13.6061" rx="7.30204" ry="7.39394" fill="#44C4F0"/>
</mask>
<g mask="url(#mask0)">
<path fill-rule="evenodd" clip-rule="evenodd" d="M19.958 5.40712C19.738 5.51674 19.5239 5.62712 19.3155 5.73833L19.1743 5.47365C19.3852 5.36109 19.6018 5.24943 19.8242 5.13861L19.958 5.40712ZM18.0652 6.45674C17.641 6.71973 17.2444 6.98749 16.8726 7.26054L16.695 7.01876C17.0734 6.74081 17.4766 6.46868 17.9071 6.20178L18.0652 6.45674ZM15.7531 8.16365C15.3844 8.49117 15.0449 8.82656 14.7307 9.17065L14.5091 8.96835C14.8305 8.61644 15.1775 8.27372 15.5538 7.93937L15.7531 8.16365ZM13.823 10.2805C13.5389 10.6694 13.2789 11.0696 13.0387 11.4822L12.7794 11.3313C13.0246 10.9102 13.2902 10.5012 13.5808 10.1035L13.823 10.2805ZM12.3733 12.7561C12.1723 13.1848 11.9857 13.6265 11.8092 14.0823L11.5295 13.974C11.7081 13.5126 11.8974 13.0645 12.1017 12.6288L12.3733 12.7561ZM11.323 15.4413C11.1743 15.8883 11.0309 16.348 10.8891 16.8214L10.6017 16.7353C10.7441 16.2599 10.8885 15.7971 11.0383 15.3466L11.323 15.4413ZM10.143 19.4365C10.1268 19.4948 10.1105 19.5533 10.0941 19.6119L9.80514 19.5313C9.8215 19.4727 9.8378 19.4142 9.85405 19.3559C9.97022 18.9392 10.0839 18.5314 10.1967 18.1324L10.4854 18.214C10.3727 18.6124 10.2592 19.0197 10.143 19.4365ZM9.70144 21.0099C9.63601 21.2401 9.56929 21.473 9.50104 21.7085L9.21289 21.6251C9.28098 21.39 9.34756 21.1577 9.41287 20.9279L9.70144 21.0099Z" fill="white"/>
<path d="M17.4674 11.3787C18.6305 11.2898 19.7568 8.71207 19.7568 8.71207L21.2232 11.3787L19.7568 19.9696L17.4674 20.5302C17.4674 20.5302 14.3252 18.5605 14.2653 17.5757C14.2055 16.5908 15.7916 17.5757 16.7342 16.6969C17.6769 15.8181 16.3044 11.4677 17.4674 11.3787Z" fill="#0071BC"/>
<path fill-rule="evenodd" clip-rule="evenodd" d="M20.3484 17.7847C20.1073 17.72 19.8728 17.6534 19.6446 17.5847L19.5574 17.8723C19.7885 17.9418 20.0259 18.0093 20.2698 18.0747L20.3484 17.7847ZM18.2599 17.1154C17.7835 16.9338 17.3389 16.7411 16.9226 16.5375L16.7902 16.8073C17.2151 17.0152 17.668 17.2113 18.1523 17.396L18.2599 17.1154ZM15.6535 15.8299C15.231 15.5617 14.8416 15.278 14.4796 14.9785L14.2881 15.2102C14.6599 15.5177 15.0593 15.8088 15.4923 16.0836L15.6535 15.8299ZM13.4237 13.9841C13.0927 13.6304 12.7852 13.2583 12.494 12.8672L12.2534 13.0472C12.5505 13.4463 12.8652 13.8272 13.2045 14.1898L13.4237 13.9841ZM11.677 11.6596C11.4262 11.2547 11.1839 10.8326 10.9442 10.3929L10.6809 10.5375C10.9226 10.9809 11.1677 11.4079 11.4221 11.8186L11.677 11.6596ZM10.2641 9.09302C10.0491 8.66877 9.83194 8.23057 9.60818 7.77783L9.33939 7.91182C9.56315 8.36457 9.78087 8.80396 9.99659 9.22968L10.2641 9.09302ZM8.95376 6.45782C8.84541 6.24104 8.73491 6.02133 8.62187 5.79867L8.35451 5.93553C8.46721 6.15753 8.57743 6.37668 8.68556 6.59301L8.95376 6.45782Z" fill="white"/>
<path d="M7.64496 16.1128C8.40953 17.0148 6.77942 17.9097 6.77942 17.9097L5.59235 16.6698L5.15135 11.7572L6.32147 11.1113C6.32147 11.1113 8.32365 11.7219 8.49879 12.2512C8.67393 12.7806 7.26411 12.7194 6.82107 12.9993C6.37802 13.2793 7.64496 16.1128 7.64496 16.1128Z" fill="#0071BC"/>
</g>
<path d="M8.0251 3C5.80565 3 4 4.83142 4 7.08253C4 9.87624 7.60207 13.9776 7.75543 14.1508C7.89948 14.3135 8.15098 14.3132 8.29477 14.1508C8.44813 13.9776 12.0502 9.87624 12.0502 7.08253C12.0502 4.83142 10.2445 3 8.0251 3Z" fill="#0071BC"/>
<ellipse cx="8.02548" cy="5.78812" rx="0.787197" ry="0.798735" fill="white"/>
<path d="M9.14003 7.67456C9.14003 8.07552 8.64129 9.2694 8.02607 9.2694C7.41085 9.2694 6.91211 8.07552 6.91211 7.67456C6.91211 7.27359 7.41085 6.94855 8.02607 6.94855C8.64129 6.94855 9.14003 7.27359 9.14003 7.67456Z" fill="white"/>
</svg>
