<svg width="81" height="80" viewBox="0 0 81 80" fill="none" xmlns="http://www.w3.org/2000/svg">
<path d="M20.7773 53.5288L67.761 6.54519L73.825 12.6092L26.8414 59.5928L20.7773 53.5288Z" fill="#08BBF9"/>
<path d="M8.33203 55.5557L43.4651 20.4226L60.0994 37.0568L24.9663 72.1899L8.33203 55.5557Z" fill="#08BBF9"/>
<path d="M36.75 29.1841L37.5493 28.3847L46.3133 37.1487L45.5139 37.948L36.75 29.1841Z" fill="white"/>
<path d="M33.9023 31.2993L34.7017 30.5L42.1341 37.9323L41.3347 38.7317L33.9023 31.2993Z" fill="white"/>
<path d="M30.832 34.3677L31.6314 33.5683L37.9514 39.8884L37.1521 40.6877L30.832 34.3677Z" fill="white"/>
<path d="M27.6523 36.5249L28.5634 35.6138L34.812 41.8623L33.9009 42.7734L27.6523 36.5249Z" fill="white"/>
<path d="M24.6953 40.6162L25.6064 39.7051L32.7332 46.832L31.8221 47.743L24.6953 40.6162Z" fill="white"/>
<path d="M0 78.1232L16.1386 61.9847L18.0153 63.8614L1.87676 80L0 78.1232Z" fill="#08BBF9"/>
<path d="M8.19837 63.3706L13.6133 57.9557L22.0466 66.389L16.6317 71.8039L8.19837 63.3706Z" fill="#08BBF9"/>
<path d="M38.9263 16.6665L42.302 13.2908L67.27 38.2588L63.8943 41.6345L38.9263 16.6665Z" fill="#08BBF9"/>
<path d="M63.5533 2.57603L66.1293 0L80.1436 14.0142L77.5675 16.5902L63.5533 2.57603Z" fill="#08BBF9"/>
</svg>
