<svg width="24" height="24" viewBox="0 0 24 24" fill="none" xmlns="http://www.w3.org/2000/svg">
<ellipse cx="12.1077" cy="16.5" rx="9.64286" ry="4.5" fill="#08BBF9"/>
<ellipse cx="12.1096" cy="16.394" rx="6.76587" ry="2.94014" fill="white"/>
<ellipse cx="12.1056" cy="16.3939" rx="4.22867" ry="1.63341" fill="#08BBF9"/>
<path fill-rule="evenodd" clip-rule="evenodd" d="M12.1332 3C9.59677 3 7.5332 5.09302 7.5332 7.66568C7.5332 10.8584 11.6498 15.5456 11.8251 15.7436C11.9897 15.9295 12.2771 15.9292 12.4414 15.7436C12.6167 15.5456 16.7333 10.8584 16.7333 7.66568C16.7332 5.09302 14.6697 3 12.1332 3ZM13.0375 6.18631C13.0375 6.69045 12.6347 7.09914 12.1378 7.09914C11.641 7.09914 11.2382 6.69045 11.2382 6.18631C11.2382 5.68217 11.641 5.27348 12.1378 5.27348C12.6347 5.27348 13.0375 5.68217 13.0375 6.18631ZM12.137 10.1649C12.8401 10.1649 13.41 8.80048 13.41 8.34224C13.41 7.884 12.8401 7.51253 12.137 7.51253C11.4339 7.51253 10.8639 7.884 10.8639 8.34224C10.8639 8.80048 11.4339 10.1649 12.137 10.1649Z" fill="#0071BC"/>
</svg>
