<svg width="342" height="282" viewBox="0 0 342 282" fill="none" xmlns="http://www.w3.org/2000/svg">
<path d="M242.671 277.876H322.629V123.885H242.671V277.876Z" fill="#DFEFF4"/>
<path d="M322.41 277.876H341.008V123.885H322.41V277.876Z" fill="#0071BC"/>
<path d="M249.295 146.483H316.004V133.623H249.295V146.483Z" fill="#0071BC"/>
<path d="M254.089 140.698C255.335 140.698 256.346 139.688 256.346 138.441C256.346 137.195 255.335 136.185 254.089 136.185C252.842 136.185 251.832 137.195 251.832 138.441C251.832 139.688 252.842 140.698 254.089 140.698Z" fill="#F3F3F3"/>
<path d="M292.97 138.44H258.242" stroke="#F3F3F3" stroke-width="4" stroke-linecap="round" stroke-linejoin="round"/>
<path d="M249.295 168.22H316.004V155.359H249.295V168.22Z" fill="#0071BC"/>
<path d="M254.089 162.435C255.335 162.435 256.346 161.424 256.346 160.178C256.346 158.931 255.335 157.921 254.089 157.921C252.842 157.921 251.832 158.931 251.832 160.178C251.832 161.424 252.842 162.435 254.089 162.435Z" fill="#F3F3F3"/>
<path d="M292.97 160.178H258.242" stroke="#F3F3F3" stroke-width="4" stroke-linecap="round" stroke-linejoin="round"/>
<path d="M249.295 189.96H316.004V177.1H249.295V189.96Z" fill="#0071BC"/>
<path d="M254.089 184.168C255.335 184.168 256.346 183.158 256.346 181.911C256.346 180.665 255.335 179.654 254.089 179.654C252.842 179.654 251.832 180.665 251.832 181.911C251.832 183.158 252.842 184.168 254.089 184.168Z" fill="#F3F3F3"/>
<path d="M292.97 181.912H258.242" stroke="#F3F3F3" stroke-width="4" stroke-linecap="round" stroke-linejoin="round"/>
<path d="M249.295 211.692H316.004V198.832H249.295V211.692Z" fill="#0071BC"/>
<path d="M254.089 205.905C255.335 205.905 256.346 204.895 256.346 203.648C256.346 202.402 255.335 201.392 254.089 201.392C252.842 201.392 251.832 202.402 251.832 203.648C251.832 204.895 252.842 205.905 254.089 205.905Z" fill="#F3F3F3"/>
<path d="M292.97 203.648H258.242" stroke="#F3F3F3" stroke-width="4" stroke-linecap="round" stroke-linejoin="round"/>
<path d="M249.295 233.43H316.004V220.569H249.295V233.43Z" fill="#0071BC"/>
<path d="M254.089 227.642C255.335 227.642 256.346 226.631 256.346 225.385C256.346 224.138 255.335 223.128 254.089 223.128C252.842 223.128 251.832 224.138 251.832 225.385C251.832 226.631 252.842 227.642 254.089 227.642Z" fill="#F3F3F3"/>
<path d="M292.97 225.385H258.242" stroke="#F3F3F3" stroke-width="4" stroke-linecap="round" stroke-linejoin="round"/>
<path d="M336.714 142.874H326.707" stroke="#F3F3F3" stroke-width="2" stroke-linecap="round" stroke-linejoin="round"/>
<path d="M336.714 145.467H326.707" stroke="#F3F3F3" stroke-width="2" stroke-linecap="round" stroke-linejoin="round"/>
<path d="M336.714 160.496H326.707" stroke="#F3F3F3" stroke-width="2" stroke-linecap="round" stroke-linejoin="round"/>
<path d="M336.714 163.085H326.707" stroke="#F3F3F3" stroke-width="2" stroke-linecap="round" stroke-linejoin="round"/>
<path d="M336.714 181.912H326.707" stroke="#F3F3F3" stroke-width="2" stroke-linecap="round" stroke-linejoin="round"/>
<path d="M336.714 184.504H326.707" stroke="#F3F3F3" stroke-width="2" stroke-linecap="round" stroke-linejoin="round"/>
<path d="M336.714 202.633H326.707" stroke="#F3F3F3" stroke-width="2" stroke-linecap="round" stroke-linejoin="round"/>
<path d="M336.714 205.22H326.707" stroke="#F3F3F3" stroke-width="2" stroke-linecap="round" stroke-linejoin="round"/>
<path d="M142.973 71.2119H1.07422V152.039H142.973V71.2119Z" fill="#DFEFF4"/>
<path d="M84.4183 83.9521H19.8487C15.4687 83.9521 11.918 87.5029 11.918 91.8829V134.417C11.918 138.797 15.4687 142.348 19.8487 142.348H84.4183C88.7983 142.348 92.349 138.797 92.349 134.417V91.8829C92.349 87.5029 88.7983 83.9521 84.4183 83.9521Z" fill="#0071BC"/>
<path d="M219.257 159.122C220.598 160.232 230.226 167.539 234.17 172.163C237.828 173.169 253.683 179.206 267.553 181.325C267.509 183.28 266.506 189.792 266.506 189.792C266.506 189.792 233.123 185.644 229.099 184.541C225.075 183.437 209.395 173.921 205.961 170.322C210.538 165.48 219.257 159.122 219.257 159.122Z" fill="#FCD9C8"/>
<path d="M271.13 191.377C275.26 191.377 278.608 188.894 278.608 185.831C278.608 182.767 275.26 180.284 271.13 180.284C267 180.284 263.652 182.767 263.652 185.831C263.652 188.894 267 191.377 271.13 191.377Z" fill="#FCD9C8"/>
<path d="M165.699 209.208V282H190.441L178.07 209.996L165.699 209.208Z" fill="#0071BC"/>
<path d="M207.197 212.088V281.999H187.312L171.242 208.463L207.197 212.088Z" fill="#0067AB"/>
<path d="M160.614 161.382C159.484 162.606 156.285 166.556 155.44 168.062C153.277 166.181 117.053 132.875 116.205 132.875C115.823 132.88 115.457 133.028 115.179 133.289C114.9 133.551 114.729 133.906 114.699 134.287C114.699 138.7 117.918 138.918 121.916 143.156C130.299 158.203 150.383 185.466 155.624 185.466C158.642 185.466 171.241 173.166 171.241 171.553C171.241 169.94 160.614 161.382 160.614 161.382Z" fill="#FCD9C8"/>
<path d="M178.196 143.267C169.812 138.203 156.476 156.774 156.734 159.88C156.992 162.985 169.309 172.022 174.453 171.016C177.827 170.346 186.958 148.549 178.196 143.267Z" fill="url(#paint0_linear)"/>
<path d="M189.907 137.237C214.773 137.237 213.15 207.732 208.743 211.294C203.261 215.727 167.674 211.629 165.699 209.208C163.724 206.787 162.272 137.237 189.907 137.237Z" fill="url(#paint1_linear)"/>
<path d="M196.893 141.392C196.893 143.471 185.367 143.917 185.367 141.392V127.24H196.893V141.392Z" fill="#FCD9C8"/>
<path d="M198.984 124.978C201.801 117.853 199.785 110.378 194.482 108.281C189.179 106.185 182.597 110.261 179.78 117.387C176.963 124.512 178.979 131.988 184.282 134.084C189.585 136.18 196.167 132.104 198.984 124.978Z" fill="#FCD9C8"/>
<path d="M199.426 127.741C200.486 126.261 200.506 124.46 199.471 123.718C198.436 122.977 196.738 123.577 195.677 125.057C194.617 126.538 194.597 128.339 195.632 129.08C196.667 129.821 198.366 129.222 199.426 127.741Z" fill="#FCD9C8"/>
<path d="M208.289 119.481C208.289 117.56 206.495 115.457 206.156 113.026C205.982 111.802 206.361 106.708 204.932 104.978C201.965 101.407 200.211 102.138 197.941 101.289C193.984 99.844 192.468 97.4463 189.202 97.4463C185.493 97.4463 183.994 99.3678 181.338 99.3678C178.3 99.3678 175.812 97.9694 171.549 97.9694C169.276 97.9694 166.305 100.941 166.305 103.563C166.305 109.76 172.073 108.871 172.073 110.38C172.073 111.427 171.737 112.258 171.737 113.7C171.737 115.578 174.185 116.671 175.584 116.671C179.842 116.671 180.406 116.152 180.406 116.152C181.252 114.462 182.332 112.901 183.615 111.514C183.786 111.333 186.552 113.288 191.069 113.439C194.775 113.563 197.381 114.277 197.381 116.004C197.381 117.221 196.935 120.84 196.961 121.859C196.988 122.878 197.35 123.536 197.578 123.536C197.806 123.536 197.934 123.2 199.356 123.2C200.881 123.2 200.999 125.075 201.264 125.075C202.783 125.108 208.289 123.864 208.289 119.481Z" fill="url(#paint2_linear)"/>
<path d="M201.224 144.333C209.607 139.266 222.947 157.841 222.686 160.943C222.424 164.045 210.124 173.082 204.976 172.079C201.596 171.422 192.465 149.625 201.224 144.333Z" fill="url(#paint3_linear)"/>
<path d="M122.787 142.418C121.834 143.034 121.035 143.859 120.449 144.83C119.864 145.802 119.508 146.894 119.408 148.023C119.308 149.153 119.467 150.291 119.873 151.35C120.279 152.409 120.921 153.361 121.751 154.135C122.58 154.908 123.575 155.482 124.66 155.813C125.745 156.144 126.89 156.224 128.011 156.045C129.131 155.867 130.195 155.435 131.123 154.783C132.051 154.132 132.819 153.277 133.366 152.284L122.787 142.418Z" fill="#FCD9C8"/>
<path d="M142.973 0.666992H41.7344V60.6893H142.973V0.666992Z" fill="#DFEFF4"/>
<path d="M35.6063 0H0V60.0223H35.6063V0Z" fill="#DFEFF4"/>
<path fill-rule="evenodd" clip-rule="evenodd" d="M129.687 8.89559C129.945 8.9989 130.07 9.2917 129.967 9.54958C127.994 14.4723 125.115 18.6147 121.812 21.5325C118.511 24.4478 114.76 26.163 111.056 26.163C110.059 26.163 109.089 25.8172 108.099 25.3473C107.549 25.086 106.95 24.7636 106.322 24.4255C105.849 24.1707 105.359 23.9069 104.861 23.6537C102.486 22.4468 99.5234 21.2536 95.3487 21.2536C93.8561 21.2536 92.4453 22.1599 90.8994 23.741C89.7785 24.8875 88.6466 26.3228 87.4029 27.8998C86.9331 28.4955 86.4473 29.1115 85.9402 29.7397C82.2765 34.2782 77.6055 39.3132 70.3242 40.8798L70.324 40.8799C60.995 42.8846 55.8632 48.7744 52.9325 52.2926C52.7547 52.5061 52.4375 52.535 52.224 52.3572C52.0106 52.1794 51.9817 51.8622 52.1595 51.6487C55.1173 48.098 60.4347 41.976 70.1127 39.8963C77.0295 38.408 81.5115 33.6242 85.1574 29.1078C85.6433 28.5059 86.1164 27.906 86.5794 27.3189C87.8364 25.7248 89.0189 24.2254 90.1801 23.0377C91.7674 21.4142 93.4292 20.2476 95.3487 20.2476C99.7384 20.2476 102.862 21.5092 105.317 22.7569C105.87 23.0383 106.371 23.3086 106.842 23.5626C107.439 23.8845 107.987 24.1801 108.531 24.4385C109.479 24.8891 110.286 25.157 111.056 25.157C114.447 25.157 117.971 23.5825 121.146 20.7786C124.317 17.9772 127.111 13.9709 129.033 9.17545C129.136 8.91758 129.429 8.79227 129.687 8.89559Z" fill="#0071BC"/>
<path d="M30.401 9.49707H5.25391V11.7975H30.401V9.49707Z" fill="#0071BC"/>
<path d="M30.401 17.2432H5.25391V19.5436H30.401V17.2432Z" fill="#0071BC"/>
<path d="M30.401 24.9902H5.25391V27.2907H30.401V24.9902Z" fill="#0071BC"/>
<path d="M30.3424 32.7363H5.19531V35.0367H30.3424V32.7363Z" fill="#0071BC"/>
<path d="M30.3424 40.4824H5.19531V42.7829H30.3424V40.4824Z" fill="#0071BC"/>
<path d="M30.3424 48.2285H5.19531V50.5289H30.3424V48.2285Z" fill="#0071BC"/>
<path d="M51.77 91.8428H17.8203V94.1432H51.77V91.8428Z" fill="white"/>
<path d="M51.77 99.5898H17.8203V101.89H51.77V99.5898Z" fill="white"/>
<path d="M51.77 107.335H17.8203V109.635H51.77V107.335Z" fill="white"/>
<path d="M51.6958 115.082H17.7461V117.382H51.6958V115.082Z" fill="white"/>
<path d="M51.6958 122.828H17.7461V125.129H51.6958V122.828Z" fill="white"/>
<path d="M51.6958 130.571H17.7461V132.872H51.6958V130.571Z" fill="white"/>
<path d="M114.617 78.7441H73.4269C69.0468 78.7441 65.4961 82.2949 65.4961 86.6749V105.219C65.4961 109.599 69.0468 113.15 73.4269 113.15H114.617C118.997 113.15 122.547 109.599 122.547 105.219V86.6749C122.547 82.2949 118.997 78.7441 114.617 78.7441Z" fill="#08BBF9"/>
<path d="M92.6486 85.0658C93.708 85.0658 94.5667 84.207 94.5667 83.1476C94.5667 82.0883 93.708 81.2295 92.6486 81.2295C91.5892 81.2295 90.7305 82.0883 90.7305 83.1476C90.7305 84.207 91.5892 85.0658 92.6486 85.0658Z" fill="#F3F3F3"/>
<path d="M92.6486 110.668C93.708 110.668 94.5667 109.81 94.5667 108.75C94.5667 107.691 93.708 106.832 92.6486 106.832C91.5892 106.832 90.7305 107.691 90.7305 108.75C90.7305 109.81 91.5892 110.668 92.6486 110.668Z" fill="#F3F3F3"/>
<path d="M92.6484 83.7744V108.207" stroke="#F3F3F3" stroke-width="3" stroke-linecap="round" stroke-linejoin="round"/>
<path d="M97.3047 86.9766V101.225" stroke="#F3F3F3" stroke-width="3" stroke-linecap="round" stroke-linejoin="round"/>
<path d="M92.6484 108.751L97.3063 101.226" stroke="#F3F3F3" stroke-width="3" stroke-linecap="round" stroke-linejoin="round"/>
<path d="M271.661 80.646C269.419 78.447 268.004 75.5419 267.655 72.4209C267.306 69.2998 268.044 66.154 269.745 63.514C271.446 60.8741 274.006 58.9017 276.992 57.9297C279.978 56.9576 283.208 57.0455 286.137 58.1783C288.011 55.3072 290.63 52.9993 293.714 51.5016C296.798 50.0039 300.231 49.3727 303.646 49.6755C307.061 49.9782 310.33 51.2036 313.102 53.2205C315.875 55.2374 318.047 57.9699 319.386 61.1259C322.025 60.0586 324.932 59.8434 327.699 60.5104C330.467 61.1774 332.956 62.6933 334.819 64.8457C336.682 66.9981 337.825 69.6793 338.089 72.5138C338.352 75.3482 337.722 78.1941 336.287 80.6527L271.661 80.646Z" fill="#0071BC"/>
<path d="M328.922 79.5049V125.477" stroke="#DFDFDF" stroke-width="4" stroke-miterlimit="10"/>
<path fill-rule="evenodd" clip-rule="evenodd" d="M266.291 97.7441C266.661 97.7441 266.961 98.0444 266.961 98.4148C266.961 100.217 265.94 103.578 263.664 106.485C261.363 109.424 257.731 111.959 252.492 111.959C248.232 111.959 242.587 110.216 240.029 105.29C239.858 104.961 239.986 104.556 240.315 104.386C240.644 104.215 241.048 104.343 241.219 104.672C243.45 108.967 248.481 110.618 252.492 110.618C257.238 110.618 260.506 108.342 262.608 105.658C264.735 102.942 265.62 99.865 265.62 98.4148C265.62 98.0444 265.92 97.7441 266.291 97.7441Z" fill="#0071BC"/>
<path fill-rule="evenodd" clip-rule="evenodd" d="M239.683 55.8048C240.011 55.6323 240.416 55.7583 240.589 56.0861C242.841 60.3679 243.965 64.9108 243.965 68.9065C243.965 77.3252 242.686 83.3472 241.591 88.5016C241.481 89.0178 241.373 89.5254 241.269 90.0258C241.193 90.3884 240.838 90.6209 240.475 90.5452C240.112 90.4694 239.88 90.1141 239.956 89.7515C240.06 89.2496 240.168 88.7418 240.278 88.2264C241.371 83.0782 242.624 77.1796 242.624 68.9065C242.624 65.1492 241.562 60.819 239.401 56.7106C239.229 56.3827 239.355 55.9772 239.683 55.8048Z" fill="#0071BC"/>
<path fill-rule="evenodd" clip-rule="evenodd" d="M213 41.1929C204.178 41.1929 196.728 45.2808 190.026 50.8759C189.742 51.1133 189.319 51.0752 189.082 50.7909C188.844 50.5066 188.882 50.0836 189.167 49.8462C195.985 44.1539 203.733 39.8516 213 39.8516C220.571 39.8516 226.742 42.1089 231.525 45.5689C231.825 45.7861 231.892 46.2053 231.675 46.5054C231.458 46.8056 231.039 46.8728 230.738 46.6557C226.186 43.362 220.29 41.1929 213 41.1929Z" fill="#0071BC"/>
<path fill-rule="evenodd" clip-rule="evenodd" d="M174.154 65.82C174.423 66.0744 174.435 66.4989 174.181 66.7681C170.714 70.4365 167.322 73.8206 163.893 76.2871C160.462 78.7547 156.933 80.348 153.194 80.348C152.824 80.348 152.523 80.0478 152.523 79.6774C152.523 79.307 152.824 79.0067 153.194 79.0067C156.54 79.0067 159.796 77.582 163.11 75.1981C166.426 72.813 169.742 69.5122 173.206 65.8467C173.46 65.5775 173.885 65.5655 174.154 65.82Z" fill="#0071BC"/>
<path d="M186.072 52.417H176.086V62.4034H186.072V52.417Z" fill="#0071BC"/>
<path d="M235.613 54.8848C238.035 54.8848 239.999 52.921 239.999 50.4985C239.999 48.0761 238.035 46.1123 235.613 46.1123C233.19 46.1123 231.227 48.0761 231.227 50.4985C231.227 52.921 233.19 54.8848 235.613 54.8848Z" fill="#0071BC"/>
<defs>
<linearGradient id="paint0_linear" x1="157.32" y1="168.982" x2="195.406" y2="160.393" gradientUnits="userSpaceOnUse">
<stop stop-color="#06ADEE"/>
<stop offset="0.177504" stop-color="#08BBF9"/>
<stop offset="0.435445" stop-color="#06ACED"/>
<stop offset="1" stop-color="#0071BC"/>
</linearGradient>
<linearGradient id="paint1_linear" x1="165.854" y1="207.667" x2="238.156" y2="196.273" gradientUnits="userSpaceOnUse">
<stop stop-color="#06ADEE"/>
<stop offset="0.177504" stop-color="#08BBF9"/>
<stop offset="0.435445" stop-color="#06ACED"/>
<stop offset="1" stop-color="#0071BC"/>
</linearGradient>
<linearGradient id="paint2_linear" x1="167.289" y1="123.042" x2="225.223" y2="100.399" gradientUnits="userSpaceOnUse">
<stop stop-color="#06ADEE"/>
<stop offset="0.177504" stop-color="#08BBF9"/>
<stop offset="0.435445" stop-color="#06ACED"/>
<stop offset="1" stop-color="#0071BC"/>
</linearGradient>
<linearGradient id="paint3_linear" x1="198.121" y1="170.044" x2="236.203" y2="161.456" gradientUnits="userSpaceOnUse">
<stop stop-color="#06ADEE"/>
<stop offset="0.177504" stop-color="#08BBF9"/>
<stop offset="0.435445" stop-color="#06ACED"/>
<stop offset="1" stop-color="#0071BC"/>
</linearGradient>
</defs>
</svg>
