<svg width="338" height="75" viewBox="0 0 338 75" fill="none" xmlns="http://www.w3.org/2000/svg">
<path d="M101.823 63.2421H98.3976V70.8812H94.0979V50.0135H101.852C104.317 50.0135 106.218 50.5629 107.556 51.6617C108.894 52.7605 109.562 54.3132 109.562 56.3197C109.562 57.7433 109.252 58.9329 108.631 59.8884C108.019 60.8343 107.088 61.5892 105.836 62.1529L110.351 70.6806V70.8812H105.736L101.823 63.2421ZM98.3976 59.7594H101.866C102.946 59.7594 103.782 59.4871 104.374 58.9425C104.967 58.3883 105.263 57.6287 105.263 56.6637C105.263 55.6795 104.981 54.9056 104.417 54.3418C103.863 53.7781 103.008 53.4962 101.852 53.4962H98.3976V59.7594Z" fill="#0071BC"/>
<path d="M125.399 61.8376H117.144V67.4272H126.833V70.8812H112.844V50.0135H126.804V53.4962H117.144V58.4695H125.399V61.8376Z" fill="#0071BC"/>
<path d="M133.655 63.5288V70.8812H129.355V50.0135H137.496C139.063 50.0135 140.439 50.3001 141.624 50.8734C142.818 51.4467 143.735 52.2637 144.375 53.3242C145.016 54.3753 145.336 55.5744 145.336 56.9216C145.336 58.9664 144.633 60.5811 143.229 61.7659C141.834 62.9412 139.899 63.5288 137.424 63.5288H133.655ZM133.655 60.0461H137.496C138.633 60.0461 139.498 59.7785 140.09 59.2435C140.692 58.7084 140.993 57.944 140.993 56.9503C140.993 55.9279 140.692 55.1014 140.09 54.4708C139.488 53.8402 138.657 53.5153 137.596 53.4962H133.655V60.0461Z" fill="#0071BC"/>
<path d="M105.363 4.48163L116.084 34.7513L126.747 4.48163H138.04V46.2171H130.272V34.7513V15.1161L119.007 46.2171H113.102L101.866 15.1448L101.852 34.7513L101.866 46.2171H94.1266V4.48163H105.363Z" fill="#0071BC"/>
<path d="M159.281 46.7903C154.733 46.7903 151.025 45.3953 148.159 42.6053C145.312 39.8153 143.888 36.0985 143.888 31.4549V30.6523C143.888 27.5374 144.49 24.7569 145.694 22.3109C146.898 19.8458 148.599 17.9539 150.796 16.6354C153.013 15.2977 155.535 14.6288 158.364 14.6288C162.606 14.6288 165.941 15.9665 168.367 18.6419C170.814 21.3172 172.037 25.1105 172.037 30.0216V33.4041H152.287C152.554 35.4297 153.357 37.054 154.695 38.277C156.051 39.5 157.762 40.1115 159.825 40.1115C163.017 40.1115 165.511 38.9554 167.307 36.6431L171.377 41.2008C170.135 42.9589 168.453 44.3348 166.332 45.3285C164.211 46.3031 161.861 46.7903 159.281 46.7903ZM158.335 21.3363C156.691 21.3363 155.354 21.8905 154.322 22.9989C153.309 24.1072 152.659 25.6933 152.373 27.7572H163.896V27.0979C163.858 25.2634 163.361 23.8492 162.405 22.8555C161.45 21.8427 160.093 21.3363 158.335 21.3363Z" fill="#0071BC"/>
<path d="M175.476 30.4803C175.476 25.6455 176.556 21.795 178.715 18.9285C180.894 16.0621 183.865 14.6288 187.63 14.6288C190.649 14.6288 193.143 15.7563 195.111 18.0112V2.18848H203.424V46.2171H195.943L195.541 42.9206C193.478 45.5004 190.821 46.7903 187.573 46.7903C183.923 46.7903 180.989 45.3571 178.773 42.4907C176.575 39.6051 175.476 35.6017 175.476 30.4803ZM183.76 31.0822C183.76 33.9869 184.267 36.2132 185.279 37.7611C186.292 39.3089 187.764 40.0829 189.694 40.0829C192.255 40.0829 194.06 39.0032 195.111 36.8438V24.6041C194.079 22.4447 192.293 21.365 189.751 21.365C185.757 21.365 183.76 24.6041 183.76 31.0822Z" fill="#0071BC"/>
<path d="M217.613 15.2021L217.871 18.6705C220.069 15.9761 223.04 14.6288 226.786 14.6288C230.78 14.6288 233.522 16.2054 235.012 19.3585C237.191 16.2054 240.296 14.6288 244.328 14.6288C247.692 14.6288 250.195 15.613 251.838 17.5813C253.482 19.5305 254.303 22.4733 254.303 26.4099V46.2171H245.991V26.4386C245.991 24.6805 245.647 23.4002 244.959 22.5976C244.271 21.7758 243.057 21.365 241.318 21.365C238.834 21.365 237.114 22.5498 236.159 24.9194L236.188 46.2171H227.904V26.4673C227.904 24.671 227.55 23.3715 226.843 22.5689C226.136 21.7663 224.932 21.365 223.231 21.365C220.881 21.365 219.18 22.3396 218.129 24.2888V46.2171H209.845V15.2021H217.613Z" fill="#0071BC"/>
<path d="M269.438 46.2171H261.126V15.2021H269.438V46.2171ZM260.638 7.17609C260.638 5.93396 261.049 4.9116 261.871 4.10899C262.712 3.30639 263.849 2.90509 265.282 2.90509C266.696 2.90509 267.824 3.30639 268.664 4.10899C269.505 4.9116 269.926 5.93396 269.926 7.17609C269.926 8.43733 269.496 9.46924 268.636 10.2718C267.795 11.0745 266.677 11.4758 265.282 11.4758C263.887 11.4758 262.759 11.0745 261.9 10.2718C261.059 9.46924 260.638 8.43733 260.638 7.17609Z" fill="#0071BC"/>
<path d="M275.085 30.4803C275.085 25.722 276.213 21.8905 278.468 18.9858C280.742 16.0812 283.799 14.6288 287.64 14.6288C291.042 14.6288 293.688 15.7945 295.58 18.1259L295.924 15.2021H303.434V45.1851C303.434 47.8987 302.813 50.2587 301.571 52.2653C300.348 54.2718 298.619 55.8005 296.383 56.8516C294.147 57.9026 291.529 58.4281 288.529 58.4281C286.255 58.4281 284.038 57.9695 281.879 57.0522C279.719 56.1541 278.085 54.9884 276.977 53.5552L280.646 48.5102C282.71 50.8225 285.213 51.9786 288.156 51.9786C290.354 51.9786 292.064 51.3862 293.287 50.2014C294.51 49.0357 295.122 47.3732 295.122 45.2138V43.5513C293.211 45.7107 290.698 46.7903 287.583 46.7903C283.857 46.7903 280.837 45.338 278.525 42.4334C276.232 39.5096 275.085 35.6399 275.085 30.8243V30.4803ZM283.369 31.0822C283.369 33.8913 283.933 36.0985 285.06 37.7037C286.188 39.2898 287.736 40.0829 289.704 40.0829C292.227 40.0829 294.032 39.1369 295.122 37.2451V24.2028C294.013 22.3109 292.227 21.365 289.761 21.365C287.774 21.365 286.207 22.1771 285.06 23.8015C283.933 25.4258 283.369 27.8527 283.369 31.0822Z" fill="#0071BC"/>
<path d="M308.537 30.423C308.537 27.3463 309.129 24.6041 310.314 22.1963C311.499 19.7884 313.199 17.9253 315.416 16.6067C317.652 15.2881 320.241 14.6288 323.184 14.6288C327.369 14.6288 330.78 15.9092 333.417 18.4699C336.074 21.0306 337.555 24.5085 337.86 28.9037L337.918 31.0249C337.918 35.7832 336.59 39.6051 333.933 42.4907C331.277 45.3571 327.713 46.7903 323.241 46.7903C318.77 46.7903 315.196 45.3571 312.521 42.4907C309.865 39.6242 308.537 35.7259 308.537 30.7956V30.423ZM316.821 31.0249C316.821 33.9678 317.375 36.2227 318.483 37.7897C319.592 39.3376 321.178 40.1115 323.241 40.1115C325.248 40.1115 326.815 39.3471 327.942 37.8184C329.07 36.2705 329.634 33.8054 329.634 30.423C329.634 27.5374 329.07 25.3016 327.942 23.7155C326.815 22.1294 325.229 21.3363 323.184 21.3363C321.159 21.3363 319.592 22.1294 318.483 23.7155C317.375 25.2825 316.821 27.7189 316.821 31.0249Z" fill="#0071BC"/>
<path fill-rule="evenodd" clip-rule="evenodd" d="M29.1362 18.0566C31.7687 7.68863 41.1319 0 52.2466 0C65.3968 0 76.0951 10.7628 76.0954 23.992C76.0954 40.4098 54.753 64.5121 53.8444 65.5301C52.9924 66.4847 51.5023 66.4864 50.6488 65.5301C50.211 65.0397 45.0305 59.1913 39.7788 51.4256L43.3443 44.5769L43.716 44.8606L41.5277 50.2031C46.0744 56.8093 50.4303 61.7154 50.81 62.1398C51.576 62.9961 52.9133 62.9946 53.6778 62.1398C54.2799 61.4668 64.8787 49.5262 70.3841 37.4067C66.5954 31.3494 59.8803 27.3145 52.2439 27.3145C45.7061 27.3145 39.8436 30.2719 35.9146 34.9239L30.4037 33.919C30.0579 32.9609 29.7493 32.0079 29.484 31.0646L34.9869 23.992C34.9869 23.992 29.1623 18.0566 29.1362 18.0566ZM35.9146 34.9239C35.2543 35.7056 34.6487 36.5352 34.1037 37.4066C34.1722 37.5574 34.1352 37.509 34.1008 37.464C34.0675 37.4205 34.0367 37.3803 34.1058 37.5258L43.3443 44.5769L43.7662 43.7664L39.7788 35.6286L35.9146 34.9239ZM52.2438 23.6453C56.2965 23.6453 59.5819 20.3599 59.5819 16.3072C59.5819 12.2545 56.2965 8.96912 52.2438 8.96912C48.1911 8.96912 44.9057 12.2545 44.9057 16.3072C44.9057 20.3599 48.1911 23.6453 52.2438 23.6453Z" fill="#0071BC"/>
<path fill-rule="evenodd" clip-rule="evenodd" d="M56.0137 27.2518C53.5642 25.8079 50.207 25.6231 48.5603 25.8771L48.0928 24.2016C50.2632 23.8669 54.3541 24.0897 57.4438 25.911C60.6712 27.8134 62.506 31.2668 60.517 36.913L58.2904 36.4795C60.1206 31.2838 58.3254 28.6144 56.0137 27.2518Z" fill="#0071BC"/>
<path fill-rule="evenodd" clip-rule="evenodd" d="M55.2874 41.6632H55.5333C56.2087 41.6632 56.7563 42.1057 56.7563 42.6515C56.7563 43.1973 56.2087 43.6398 55.5333 43.6398H54.0045C53.3291 43.6398 52.7815 43.1973 52.7815 42.6515C52.7815 40.8089 53.2964 39.092 54.1912 37.8009C55.0638 36.5417 56.4622 35.4863 58.2851 35.4863C60.108 35.4863 61.5063 36.5417 62.379 37.8009C63.2737 39.092 63.7886 40.8089 63.7886 42.6515C63.7886 43.1973 63.2411 43.6398 62.5656 43.6398H61.0369C60.3614 43.6398 59.8138 43.1973 59.8138 42.6515C59.8138 42.1057 60.3614 41.6632 61.0369 41.6632H61.2827C61.1409 40.5091 60.7577 39.5068 60.2448 38.7667C59.5682 37.7903 58.8262 37.4629 58.2851 37.4629C57.7439 37.4629 57.002 37.7903 56.3253 38.7667C55.8124 39.5068 55.4292 40.5091 55.2874 41.6632Z" fill="#0071BC"/>
<path fill-rule="evenodd" clip-rule="evenodd" d="M0 32.7454C0 19.5162 10.6985 8.75342 23.8488 8.75342C36.999 8.75342 47.6974 19.5162 47.6976 32.7454C47.6976 49.1632 26.3553 73.2655 25.4466 74.2835C24.5947 75.2382 23.1045 75.2398 22.251 74.2835C21.3424 73.2655 0 49.1632 0 32.7454ZM23.8459 32.3987C27.8986 32.3987 31.184 29.1133 31.184 25.0606C31.184 21.0079 27.8986 17.7225 23.8459 17.7225C19.7932 17.7225 16.5078 21.0079 16.5078 25.0606C16.5078 29.1133 19.7932 32.3987 23.8459 32.3987ZM23.8461 36.0679C31.4824 36.0679 38.1975 40.1028 41.9863 46.1601C36.4808 58.2796 25.8821 70.2202 25.28 70.8932C24.5154 71.748 23.1781 71.7495 22.4121 70.8932C21.8101 70.2202 11.2112 58.2796 5.7058 46.16C9.49459 40.1027 16.2097 36.0679 23.8461 36.0679Z" fill="#08BBF9"/>
<path d="M22.5857 36.1182L24.8385 38.3856L23.9825 39.4012L20.6995 36.1182L22.5857 36.1182Z" fill="#08BBF9"/>
<path d="M25.3582 36.1182L23.1054 38.3856L23.9613 39.4012L27.2444 36.1182L25.3582 36.1182Z" fill="#08BBF9"/>
<path d="M18.749 51.67L23.2847 39.0458C23.4699 38.5304 24.2003 38.5347 24.3794 39.0522L28.7475 51.6775C28.7964 51.8189 28.7888 51.9736 28.7264 52.1095L24.3587 61.6166C24.1533 62.0638 23.5194 62.0684 23.3075 61.6242L18.7714 52.1162C18.7047 51.9764 18.6967 51.8158 18.749 51.67Z" fill="#08BBF9"/>
</svg>
