<svg width="327" height="272" viewBox="0 0 327 272" fill="none" xmlns="http://www.w3.org/2000/svg">
<path d="M79.3544 70.5908H33.354C31.3894 70.5908 29.7969 72.187 29.7969 74.156V163.977C29.7969 165.946 31.3894 167.543 33.354 167.543H79.3544C81.3189 167.543 82.9115 165.946 82.9115 163.977V74.156C82.9115 72.187 81.3189 70.5908 79.3544 70.5908Z" fill="url(#paint0_linear)"/>
<path d="M78.1317 72.1843H34.5786C32.6141 72.1843 31.0215 73.7805 31.0215 75.7495V161.724C31.0215 163.693 32.6141 165.289 34.5786 165.289H78.1317C80.0963 165.289 81.6888 163.693 81.6888 161.724V75.7495C81.6888 73.7805 80.0963 72.1843 78.1317 72.1843Z" fill="white"/>
<path d="M76.1124 78.5921L36.8848 78.647L36.9903 154.414L76.218 154.359L76.1124 78.5921Z" fill="#F4F4F4"/>
<path d="M56.6122 163.057C58.339 163.055 59.7369 161.615 59.7344 159.841C59.7319 158.067 58.3301 156.63 56.6033 156.633C54.8764 156.635 53.4786 158.075 53.481 159.849C53.4835 161.623 54.8854 163.06 56.6122 163.057Z" fill="#F4F4F4"/>
<path d="M50.5536 75.733C50.8994 75.7326 51.1793 75.4448 51.1788 75.0904C51.1783 74.736 50.8976 74.4491 50.5518 74.4496C50.2061 74.45 49.9262 74.7378 49.9267 75.0922C49.9272 75.4466 50.2079 75.7335 50.5536 75.733Z" fill="#DBDBDB"/>
<path d="M62.7081 74.5931L53.7229 74.6057C53.5264 74.606 53.3674 74.7658 53.3677 74.9627L53.368 75.2123C53.3683 75.4092 53.5278 75.5686 53.7242 75.5683L62.7095 75.5557C62.9059 75.5555 63.065 75.3956 63.0647 75.1987L63.0643 74.9492C63.0641 74.7523 62.9046 74.5929 62.7081 74.5931Z" fill="#DBDBDB"/>
<path d="M67.6559 122.557H45.4453V145.931H67.6559V122.557Z" fill="url(#paint1_linear)"/>
<path d="M66.6911 123.573H46.4121V144.914H66.6911V123.573Z" fill="#FCFCFC"/>
<g opacity="0.5">
<path opacity="0.5" d="M58.0879 133.245V132.843H59.155V130.778C59.4783 130.286 59.6645 129.717 59.6944 129.129C59.7243 128.541 59.5969 127.955 59.3252 127.433C59.0536 126.91 58.6476 126.47 58.1494 126.158C57.6511 125.846 57.0787 125.673 56.4912 125.657C55.9038 125.641 55.3228 125.782 54.8083 126.067C54.2938 126.351 53.8644 126.768 53.5648 127.275C53.2651 127.782 53.106 128.359 53.1038 128.948C53.1017 129.537 53.2566 130.116 53.5526 130.625V132.843H54.73V133.317C53.2879 133.715 52.016 134.577 51.1095 135.77C50.2029 136.962 49.7116 138.42 49.7109 139.92V145.93H63.4022V139.92C63.4015 138.368 62.8753 136.863 61.9099 135.651C60.9444 134.438 59.5969 133.59 58.0879 133.245V133.245Z" fill="url(#paint2_linear)"/>
</g>
<path d="M58.9165 129.06H53.8477V133.124H58.9165V129.06Z" fill="#F55F44"/>
<path d="M54.9436 133.338H58.145C59.3582 133.338 60.5217 133.821 61.3796 134.681C62.2374 135.541 62.7194 136.707 62.7194 137.923V144.975H50.3691V137.916C50.371 136.701 50.8538 135.537 51.7115 134.678C52.5691 133.82 53.7316 133.338 54.9436 133.338V133.338Z" fill="#0071BC"/>
<path d="M56.8168 131.306H56.0306C55.4118 131.306 54.9102 131.809 54.9102 132.429V133.976C54.9102 134.597 55.4118 135.1 56.0306 135.1H56.8168C57.4356 135.1 57.9372 134.597 57.9372 133.976V132.429C57.9372 131.809 57.4356 131.306 56.8168 131.306Z" fill="#FDA57D"/>
<path d="M55.8477 134.985L56.4132 135.812L57.0073 134.985H55.8477Z" fill="#FDA57D"/>
<path opacity="0.1" d="M52.6953 137.973C52.6953 137.973 52.0941 143.97 52.4819 144.358Z" fill="black"/>
<path opacity="0.1" d="M60.1309 137.973C60.1309 137.973 60.732 143.97 60.3443 144.358Z" fill="black"/>
<path opacity="0.05" d="M56.4276 133.149C56.9653 133.15 57.489 132.977 57.9216 132.657C57.8649 132.301 57.6834 131.976 57.4097 131.742C57.1359 131.507 56.7877 131.378 56.4276 131.377C56.0674 131.378 55.7193 131.507 55.4455 131.742C55.1717 131.976 54.9902 132.301 54.9336 132.657C55.3662 132.977 55.8899 133.15 56.4276 133.149Z" fill="black"/>
<path d="M56.4258 132.604C58.0741 132.604 59.4102 131.265 59.4102 129.613C59.4102 127.961 58.0741 126.621 56.4258 126.621C54.7776 126.621 53.4414 127.961 53.4414 129.613C53.4414 131.265 54.7776 132.604 56.4258 132.604Z" fill="#F55F44"/>
<path d="M56.4263 133.074C57.8191 133.074 58.9483 131.943 58.9483 130.547C58.9483 129.151 57.8191 128.019 56.4263 128.019C55.0334 128.019 53.9043 129.151 53.9043 130.547C53.9043 131.943 55.0334 133.074 56.4263 133.074Z" fill="#FDA57D"/>
<path d="M53.8986 130.703C53.9968 130.703 54.0764 130.56 54.0764 130.383C54.0764 130.205 53.9968 130.062 53.8986 130.062C53.8003 130.062 53.7207 130.205 53.7207 130.383C53.7207 130.56 53.8003 130.703 53.8986 130.703Z" fill="#FDA57D"/>
<path d="M58.9591 130.703C59.0573 130.703 59.137 130.56 59.137 130.383C59.137 130.205 59.0573 130.062 58.9591 130.062C58.8609 130.062 58.7812 130.205 58.7812 130.383C58.7812 130.56 58.8609 130.703 58.9591 130.703Z" fill="#FDA57D"/>
<path d="M73.6671 83.5181H39.4336V85.0083H73.6671V83.5181Z" fill="white"/>
<path d="M73.6671 86.4988H39.4336V87.989H73.6671V86.4988Z" fill="white"/>
<path d="M58.7842 89.4829H39.4336V90.9731H58.7842V89.4829Z" fill="white"/>
<path d="M67.7126 92.4668H39.4336V93.9571H67.7126V92.4668Z" fill="white"/>
<path d="M63.2484 95.4507H39.4336V96.9409H63.2484V95.4507Z" fill="white"/>
<path d="M73.6671 98.4348H39.4336V99.9251H73.6671V98.4348Z" fill="white"/>
<path d="M70.6952 102.909H40.9258V114.842H70.6952V102.909Z" fill="white"/>
<path d="M250.943 162.976C250.943 162.976 255.923 197.269 285.159 208.66L226.004 208.742L166.85 208.824C196.039 197.351 200.944 163.043 200.944 163.043L250.943 162.976Z" fill="#F4F4F4"/>
<path d="M285.688 208.653L166.262 208.82L166.272 216.064L285.698 215.897L285.688 208.653Z" fill="url(#paint3_linear)"/>
<path d="M285.165 208.654L166.855 208.819L166.863 214.409L285.172 214.244L285.165 208.654Z" fill="#F5F5F5"/>
<path d="M322.001 39.5737L129.598 39.8411C128.551 39.8663 127.557 40.3072 126.835 41.0667C126.112 41.8262 125.72 42.8421 125.745 43.8912L125.895 156.401V160.149C125.895 168.705 132.522 175.618 140.674 175.607L311.277 175.372C319.426 175.372 326.024 168.423 326.014 159.874V156.131L325.864 43.6202C325.876 43.1002 325.785 42.583 325.598 42.0981C325.41 41.6132 325.129 41.1701 324.77 40.7943C324.411 40.4185 323.982 40.1172 323.507 39.9078C323.032 39.6984 322.52 39.5848 322.001 39.5737V39.5737Z" fill="url(#paint4_linear)"/>
<path d="M131.884 43.342H319.518C320.532 43.342 321.504 43.7458 322.221 44.4646C322.939 45.1833 323.341 46.1582 323.341 47.1746V154.244H128.057V47.1746C128.057 46.671 128.156 46.1724 128.348 45.7071C128.54 45.2419 128.822 44.8193 129.178 44.4633C129.533 44.1074 129.955 43.8252 130.42 43.6328C130.884 43.4404 131.382 43.3416 131.884 43.342V43.342Z" fill="white"/>
<path d="M309.969 172.042L141.945 172.274C140.155 172.276 138.382 171.925 136.728 171.241C135.073 170.556 133.569 169.552 132.302 168.285C131.034 167.018 130.028 165.513 129.341 163.857C128.654 162.2 128.299 160.424 128.297 158.63V153.995L323.582 153.724V158.359C323.584 160.153 323.235 161.931 322.552 163.589C321.869 165.248 320.867 166.756 319.603 168.027C318.339 169.297 316.837 170.306 315.184 170.995C313.531 171.684 311.759 172.04 309.969 172.042V172.042Z" fill="#F5F5F5"/>
<path d="M314.423 52.3262H137.703V141.855H314.423V52.3262Z" fill="#F4F4F4"/>
<path d="M299.211 58.2302H267.93V91.1512H299.211V58.2302Z" fill="url(#paint5_linear)"/>
<path d="M297.851 59.6636H269.287V89.7217H297.851V59.6636Z" fill="#FCFCFC"/>
<g opacity="0.5">
<path opacity="0.5" d="M285.523 73.0296L285.167 72.9012L285.146 72.9333H285.124V71.9636C285.124 71.8442 285.115 71.725 285.096 71.6071C285.672 71.1821 286.113 70.5988 286.366 69.9279C286.864 69.2806 287.171 68.5065 287.253 67.6931C287.334 66.8797 287.187 66.0598 286.827 65.3262C286.467 64.5925 285.91 63.9746 285.217 63.5425C284.525 63.1104 283.726 62.8813 282.91 62.8813C282.094 62.8813 281.295 63.1104 280.603 63.5425C279.911 63.9746 279.353 64.5925 278.993 65.3262C278.633 66.0598 278.486 66.8797 278.567 67.6931C278.649 68.5065 278.956 69.2806 279.454 69.9279C279.707 70.5988 280.148 71.1821 280.724 71.6071C280.705 71.725 280.696 71.8442 280.696 71.9636V73.0332C278.787 73.5613 277.104 74.7024 275.904 76.2815C274.705 77.8605 274.055 79.7903 274.055 81.775V89.7289H292.125V81.7643C292.125 79.7859 291.481 77.8616 290.289 76.2847C289.097 74.7077 287.423 73.5646 285.523 73.0296V73.0296Z" fill="url(#paint6_linear)"/>
</g>
<path d="M282.54 72.8333H283.643C285.806 72.8333 287.88 73.6946 289.41 75.2277C290.94 76.7608 291.799 78.8401 291.799 81.0082V89.2082H274.369V81.0082C274.369 79.9335 274.581 78.8693 274.991 77.8765C275.402 76.8838 276.004 75.9819 276.763 75.2226C277.522 74.4633 278.423 73.8614 279.414 73.4514C280.405 73.0415 281.467 72.8314 282.54 72.8333V72.8333Z" fill="#08BBF9"/>
<path d="M283.049 69.9849H282.782C281.678 69.9849 280.783 70.8819 280.783 71.9885V73.3254C280.783 74.432 281.678 75.3291 282.782 75.3291H283.049C284.153 75.3291 285.048 74.432 285.048 73.3254V71.9885C285.048 70.8819 284.153 69.9849 283.049 69.9849Z" fill="#FDA57D"/>
<path opacity="0.05" d="M279.305 73.7779L280.735 76.8511L282.154 75.4286L280.735 73.2432L279.305 73.7779Z" fill="black"/>
<path d="M279.354 73.6285L280.776 76.7018L282.199 75.2757L280.776 73.0938L280.122 73.2934C280.058 73.3133 279.995 73.3371 279.933 73.3647L279.354 73.6285Z" fill="white"/>
<path opacity="0.05" d="M286.532 73.6283L285.099 76.8512L283.676 75.4287L285.138 73.1292L286.532 73.6283Z" fill="black"/>
<path d="M286.482 73.4786L285.06 76.6873L283.637 75.2612L285.099 72.9617L285.365 73.0401C285.655 73.123 285.939 73.2242 286.216 73.3431L286.482 73.4786Z" fill="white"/>
<path d="M282.098 75.165L282.894 76.3273L283.734 75.165H282.098Z" fill="#FDA57D"/>
<path opacity="0.1" d="M277.655 79.3755C277.655 79.3755 276.809 87.8214 277.356 88.3705Z" fill="black"/>
<path opacity="0.1" d="M288.129 79.3755C288.129 79.3755 288.975 87.8214 288.428 88.3705Z" fill="black"/>
<path opacity="0.05" d="M282.914 72.5768C283.672 72.5769 284.41 72.3345 285.02 71.8851C284.94 71.3832 284.684 70.9263 284.298 70.5964C283.912 70.2665 283.422 70.0851 282.914 70.0847V70.0847C282.407 70.0851 281.917 70.2665 281.531 70.5964C281.145 70.9263 280.889 71.3832 280.809 71.8851C281.419 72.3345 282.157 72.5769 282.914 72.5768V72.5768Z" fill="black"/>
<path d="M282.914 71.8065C285.234 71.8065 287.115 69.9214 287.115 67.596C287.115 65.2706 285.234 63.3855 282.914 63.3855C280.594 63.3855 278.713 65.2706 278.713 67.596C278.713 69.9214 280.594 71.8065 282.914 71.8065Z" fill="black"/>
<path d="M282.913 72.4768C284.876 72.4768 286.467 70.8822 286.467 68.9152C286.467 66.9481 284.876 65.3535 282.913 65.3535C280.95 65.3535 279.359 66.9481 279.359 68.9152C279.359 70.8822 280.95 72.4768 282.913 72.4768Z" fill="#FDA57D"/>
<path opacity="0.05" d="M280.049 65.3856L280.945 66.4837C280.945 66.4837 284.883 66.8402 285.331 65.9347C285.779 65.0291 282.738 64.3838 282.738 64.3838L280.049 65.3856Z" fill="black"/>
<path d="M280.049 65.2857L280.945 66.3838C280.945 66.3838 284.883 66.7403 285.331 65.8348C285.779 64.9292 282.738 64.2839 282.738 64.2839L280.049 65.2857Z" fill="black"/>
<path d="M279.353 69.1326C279.49 69.1326 279.601 68.9314 279.601 68.6833C279.601 68.4353 279.49 68.2341 279.353 68.2341C279.215 68.2341 279.104 68.4353 279.104 68.6833C279.104 68.9314 279.215 69.1326 279.353 69.1326Z" fill="#FDA57D"/>
<path d="M286.483 69.1326C286.621 69.1326 286.732 68.9314 286.732 68.6833C286.732 68.4353 286.621 68.2341 286.483 68.2341C286.346 68.2341 286.234 68.4353 286.234 68.6833C286.234 68.9314 286.346 69.1326 286.483 69.1326Z" fill="#FDA57D"/>
<path d="M299.389 97.7219H268.107V130.643H299.389V97.7219Z" fill="url(#paint7_linear)"/>
<path d="M298.032 99.1514H269.469V129.21H298.032V99.1514Z" fill="#08B7F3"/>
<g opacity="0.5">
<path opacity="0.5" d="M285.906 112.696V111.591C285.906 111.537 285.906 111.48 285.906 111.427C286.511 110.973 286.973 110.354 287.237 109.644C287.674 109.075 287.974 108.413 288.114 107.708C288.253 107.004 288.228 106.277 288.04 105.584C287.853 104.891 287.507 104.251 287.031 103.714C286.556 103.177 285.962 102.757 285.298 102.489C285.349 102.263 285.349 102.028 285.3 101.802C285.25 101.575 285.152 101.363 285.011 101.178C284.871 100.994 284.691 100.844 284.486 100.737C284.281 100.63 284.055 100.569 283.824 100.559C283.593 100.549 283.363 100.591 283.149 100.68C282.936 100.769 282.745 100.904 282.589 101.076C282.433 101.247 282.317 101.451 282.249 101.672C282.18 101.893 282.161 102.127 282.193 102.357C281.476 102.578 280.823 102.97 280.29 103.499C279.757 104.029 279.36 104.679 279.133 105.396C278.906 106.113 278.856 106.874 278.987 107.614C279.118 108.355 279.425 109.052 279.884 109.648C280.148 110.357 280.61 110.976 281.214 111.43C281.214 111.484 281.214 111.537 281.214 111.594V112.764C279.228 113.145 277.437 114.208 276.147 115.769C274.857 117.33 274.15 119.293 274.146 121.32V130.7H293.39V121.334C293.39 119.232 292.632 117.201 291.258 115.614C289.883 114.027 287.982 112.991 285.906 112.696V112.696Z" fill="url(#paint8_linear)"/>
</g>
<path d="M283.198 112.896H284.301C285.372 112.896 286.432 113.107 287.422 113.518C288.412 113.929 289.311 114.531 290.068 115.29C290.826 116.049 291.426 116.95 291.836 117.942C292.246 118.934 292.457 119.997 292.457 121.071V129.27H275.027V121.071C275.027 118.902 275.887 116.823 277.416 115.29C278.946 113.757 281.021 112.896 283.184 112.896H283.198Z" fill="white"/>
<path d="M283.703 110.047H283.437C282.333 110.047 281.438 110.944 281.438 112.05V113.387C281.438 114.494 282.333 115.391 283.437 115.391H283.703C284.807 115.391 285.702 114.494 285.702 113.387V112.05C285.702 110.944 284.807 110.047 283.703 110.047Z" fill="#FDB797"/>
<path d="M282.752 115.227L283.549 116.389L284.385 115.227H282.752Z" fill="#FDB797"/>
<path opacity="0.1" d="M278.315 119.434C278.315 119.434 277.469 127.88 278.017 128.429Z" fill="black"/>
<path opacity="0.1" d="M288.787 119.434C288.787 119.434 289.634 127.88 289.086 128.429Z" fill="black"/>
<path opacity="0.05" d="M283.587 112.639C284.345 112.639 285.083 112.396 285.693 111.947C285.613 111.445 285.357 110.988 284.971 110.658C284.585 110.328 284.095 110.147 283.587 110.147V110.147C283.075 110.14 282.578 110.318 282.186 110.649C281.794 110.98 281.534 111.44 281.453 111.947C282.072 112.402 282.82 112.645 283.587 112.639V112.639Z" fill="black"/>
<path d="M283.572 111.869C285.892 111.869 287.773 109.984 287.773 107.658C287.773 105.333 285.892 103.448 283.572 103.448C281.252 103.448 279.371 105.333 279.371 107.658C279.371 109.984 281.252 111.869 283.572 111.869Z" fill="#FDD835"/>
<path d="M283.571 112.539C285.534 112.539 287.125 110.944 287.125 108.977C287.125 107.01 285.534 105.416 283.571 105.416C281.609 105.416 280.018 107.01 280.018 108.977C280.018 110.944 281.609 112.539 283.571 112.539Z" fill="#FDB797"/>
<path d="M280.007 109.195C280.144 109.195 280.256 108.994 280.256 108.746C280.256 108.497 280.144 108.296 280.007 108.296C279.869 108.296 279.758 108.497 279.758 108.746C279.758 108.994 279.869 109.195 280.007 109.195Z" fill="#FDB797"/>
<path d="M287.14 109.195C287.277 109.195 287.389 108.994 287.389 108.746C287.389 108.497 287.277 108.296 287.14 108.296C287.002 108.296 286.891 108.497 286.891 108.746C286.891 108.994 287.002 109.195 287.14 109.195Z" fill="#FDB797"/>
<path d="M283.751 104.877C284.538 104.877 285.177 104.237 285.177 103.447C285.177 102.658 284.538 102.018 283.751 102.018C282.963 102.018 282.324 102.658 282.324 103.447C282.324 104.237 282.963 104.877 283.751 104.877Z" fill="#FDD835"/>
<path d="M280.893 104.877C280.893 104.877 282.315 107.729 286.605 106.303L285.182 104.877H280.893Z" fill="#FDD835"/>
<path d="M230.495 63.5601H151.891V66.9862H230.495V63.5601Z" fill="white"/>
<path d="M230.495 70.4089H151.891V73.8351H230.495V70.4089Z" fill="white"/>
<path d="M196.319 77.2615H151.891V80.6876H196.319V77.2615Z" fill="white"/>
<path d="M216.826 84.1099H151.891V87.536H216.826V84.1099Z" fill="white"/>
<path d="M206.57 90.9624H151.891V94.3886H206.57V90.9624Z" fill="white"/>
<path d="M230.495 97.811H151.891V101.237H230.495V97.811Z" fill="white"/>
<path d="M223.66 108.09H155.311V135.492H223.66V108.09Z" fill="white"/>
<path d="M49.3645 217.701H11.7695V12.1787H233.914V29.3059" stroke="#08BBF9" stroke-width="6" stroke-miterlimit="10" stroke-dasharray="12 12"/>
<g opacity="0.5">
<path opacity="0.5" d="M12.9123 25.8833C20.0435 25.8833 25.8246 20.0891 25.8246 12.9416C25.8246 5.79417 20.0435 0 12.9123 0C5.78102 0 0 5.79417 0 12.9416C0 20.0891 5.78102 25.8833 12.9123 25.8833Z" fill="url(#paint9_linear)"/>
</g>
<path d="M12.9128 25.1203C19.6236 25.1203 25.0638 19.6677 25.0638 12.9416C25.0638 6.21553 19.6236 0.762939 12.9128 0.762939C6.20193 0.762939 0.761719 6.21553 0.761719 12.9416C0.761719 19.6677 6.20193 25.1203 12.9128 25.1203Z" fill="#08BBF9"/>
<path d="M8.35457 12.1786L12.9112 16.3641L19.3638 6.84863L21.6439 8.75245L12.9112 20.1718L6.45508 12.9415L8.35457 12.1786Z" fill="white"/>
<path d="M150.922 118.375L64.5489 118.496C61.1758 118.5 58.4452 121.245 58.4499 124.626L58.6463 265.557C58.651 268.938 61.3892 271.675 64.7623 271.67L151.136 271.55C154.509 271.545 157.239 268.8 157.235 265.42L157.038 124.488C157.034 121.107 154.295 118.37 150.922 118.375Z" fill="url(#paint10_linear)"/>
<path d="M150.499 130.076L65.3594 130.196L65.5383 258.667L150.677 258.548L150.499 130.076Z" fill="url(#paint11_linear)"/>
<path d="M149.526 120.69L65.9557 120.807C63.4647 120.811 61.4481 122.838 61.4516 125.334L61.6426 262.412C61.6461 264.909 63.6682 266.93 66.1593 266.927L149.73 266.81C152.221 266.806 154.237 264.779 154.234 262.283L154.043 125.205C154.039 122.708 152.017 120.687 149.526 120.69Z" fill="white"/>
<path d="M147.903 131.859L67.9434 131.971L68.1141 254.528L148.074 254.416L147.903 131.859Z" fill="#F4F4F4"/>
<path d="M107.919 264.163C109.738 264.163 111.213 262.648 111.213 260.78C111.213 258.911 109.738 257.396 107.919 257.396C106.1 257.396 104.625 258.911 104.625 260.78C104.625 262.648 106.1 264.163 107.919 264.163Z" fill="#DBDBDB"/>
<path d="M94.0808 127.759C94.6878 127.759 95.1792 127.254 95.1784 126.631C95.1775 126.009 94.6847 125.505 94.0777 125.506C93.4706 125.507 92.9792 126.012 92.9801 126.634C92.981 127.257 93.4738 127.76 94.0808 127.759Z" fill="#DBDBDB"/>
<path d="M113.578 125.928L99.8407 125.947C99.6914 125.948 99.5705 126.069 99.5707 126.219L99.5715 126.803C99.5717 126.953 99.6929 127.074 99.8422 127.074L113.58 127.055C113.729 127.055 113.85 126.933 113.85 126.783L113.849 126.199C113.849 126.049 113.727 125.928 113.578 125.928Z" fill="#DBDBDB"/>
<path d="M138.807 207.423H107.525V240.344H138.807V207.423Z" fill="url(#paint12_linear)"/>
<path d="M137.446 208.856H108.883V238.914H137.446V208.856Z" fill="#08B7F3"/>
<g opacity="0.5">
<path opacity="0.5" d="M125.593 222.226L125.237 222.097L125.216 222.129H125.195V221.16C125.195 221.04 125.185 220.921 125.166 220.803C125.743 220.378 126.184 219.795 126.436 219.124C126.934 218.477 127.242 217.702 127.323 216.889C127.405 216.076 127.257 215.256 126.897 214.522C126.538 213.789 125.98 213.171 125.288 212.739C124.595 212.306 123.796 212.077 122.98 212.077C122.165 212.077 121.366 212.306 120.673 212.739C119.981 213.171 119.423 213.789 119.063 214.522C118.704 215.256 118.556 216.076 118.638 216.889C118.719 217.702 119.026 218.477 119.525 219.124C119.777 219.795 120.218 220.378 120.795 220.803C120.776 220.921 120.766 221.04 120.766 221.16V222.229C118.857 222.757 117.174 223.898 115.975 225.477C114.775 227.057 114.125 228.986 114.125 230.971V238.925H132.213V230.957C132.212 228.977 131.564 227.051 130.369 225.475C129.173 223.898 127.496 222.757 125.593 222.226V222.226Z" fill="url(#paint13_linear)"/>
</g>
<path d="M122.612 222.026H123.715C125.878 222.026 127.953 222.887 129.482 224.42C131.012 225.953 131.871 228.033 131.871 230.201V238.401H114.441V230.201C114.441 229.126 114.653 228.062 115.064 227.069C115.474 226.076 116.076 225.175 116.835 224.415C117.594 223.656 118.495 223.054 119.486 222.644C120.478 222.234 121.54 222.024 122.612 222.026V222.026Z" fill="#FCFCFC"/>
<path d="M123.121 219.177H122.855C121.75 219.177 120.855 220.074 120.855 221.181V222.518C120.855 223.624 121.75 224.521 122.855 224.521H123.121C124.225 224.521 125.12 223.624 125.12 222.518V221.181C125.12 220.074 124.225 219.177 123.121 219.177Z" fill="#BE7C5E"/>
<path d="M122.17 224.357L122.967 225.52L123.806 224.357H122.17Z" fill="#BE7C5E"/>
<path opacity="0.1" d="M117.729 228.568C117.729 228.568 116.883 237.014 117.431 237.563Z" fill="black"/>
<path opacity="0.1" d="M128.201 228.568C128.201 228.568 129.048 237.014 128.5 237.563Z" fill="black"/>
<path opacity="0.05" d="M122.989 221.755C123.746 221.755 124.484 221.513 125.094 221.063C125.014 220.561 124.758 220.105 124.372 219.775C123.986 219.445 123.496 219.263 122.989 219.263V219.263C122.481 219.263 121.991 219.445 121.605 219.775C121.219 220.105 120.963 220.561 120.883 221.063C121.493 221.513 122.231 221.755 122.989 221.755V221.755Z" fill="black"/>
<path d="M122.986 220.999C125.306 220.999 127.187 219.114 127.187 216.789C127.187 214.463 125.306 212.578 122.986 212.578C120.666 212.578 118.785 214.463 118.785 216.789C118.785 219.114 120.666 220.999 122.986 220.999Z" fill="#444444"/>
<path d="M122.987 221.67C124.95 221.67 126.541 220.075 126.541 218.108C126.541 216.141 124.95 214.546 122.987 214.546C121.025 214.546 119.434 216.141 119.434 218.108C119.434 220.075 121.025 221.67 122.987 221.67Z" fill="#BE7C5E"/>
<path opacity="0.05" d="M120.125 214.578L121.021 215.677C121.021 215.677 124.959 216.033 125.407 215.128C125.855 214.222 122.814 213.577 122.814 213.577L120.125 214.578Z" fill="black"/>
<path d="M120.125 214.478L121.021 215.576C121.021 215.576 124.959 215.933 125.407 215.027C125.855 214.122 122.814 213.477 122.814 213.477L120.125 214.478Z" fill="#444444"/>
<path d="M119.425 218.325C119.562 218.325 119.674 218.124 119.674 217.876C119.674 217.628 119.562 217.427 119.425 217.427C119.287 217.427 119.176 217.628 119.176 217.876C119.176 218.124 119.287 218.325 119.425 218.325Z" fill="#BE7C5E"/>
<path d="M126.556 218.325C126.693 218.325 126.805 218.124 126.805 217.876C126.805 217.628 126.693 217.427 126.556 217.427C126.418 217.427 126.307 217.628 126.307 217.876C126.307 218.124 126.418 218.325 126.556 218.325Z" fill="#BE7C5E"/>
<path d="M120.21 212.874C120.488 212.518 120.872 212.26 121.306 212.136C122.092 211.822 122.91 211.502 123.753 211.559C123.835 211.558 123.916 211.581 123.984 211.626C124.041 211.687 124.088 211.755 124.123 211.83C124.379 212.211 125.098 212.186 125.19 212.635C125.215 212.781 125.155 212.938 125.19 213.081C125.283 213.437 125.784 213.402 126.079 213.605C126.237 213.747 126.332 213.946 126.345 214.157C126.359 214.369 126.289 214.578 126.151 214.739C125.858 215.05 125.479 215.266 125.062 215.359C124.331 215.64 123.536 215.71 122.768 215.562C121.69 215.281 119.168 214.582 120.21 212.874Z" fill="#444444"/>
<path d="M106.793 207.066H75.5117V239.987H106.793V207.066Z" fill="url(#paint14_linear)"/>
<path d="M105.431 208.5H76.8672V238.558H105.431V208.5Z" fill="#FCFCFC"/>
<g opacity="0.5">
<path opacity="0.5" d="M93.5814 221.869L93.2257 221.741L93.2043 221.773H93.183V220.803C93.183 220.684 93.1735 220.565 93.1545 220.447C93.7308 220.022 94.1719 219.438 94.4244 218.767C94.9226 218.12 95.2299 217.346 95.3114 216.533C95.3929 215.719 95.2454 214.899 94.8857 214.166C94.5259 213.432 93.9682 212.814 93.2759 212.382C92.5836 211.95 91.7843 211.721 90.9687 211.721C90.1531 211.721 89.3538 211.95 88.6615 212.382C87.9692 212.814 87.4115 213.432 87.0517 214.166C86.692 214.899 86.5445 215.719 86.626 216.533C86.7075 217.346 87.0148 218.12 87.513 218.767C87.7655 219.438 88.2066 220.022 88.7829 220.447C88.7639 220.565 88.7544 220.684 88.7544 220.803V221.873C86.8456 222.401 85.1624 223.542 83.9628 225.121C82.7632 226.7 82.1135 228.63 82.1133 230.615V238.569H100.201V230.6C100.2 228.62 99.5522 226.695 98.3569 225.118C97.1616 223.542 95.4844 222.401 93.5814 221.869Z" fill="url(#paint15_linear)"/>
</g>
<path d="M90.6003 221.669H91.703C92.7742 221.669 93.8348 221.881 94.8244 222.292C95.814 222.703 96.7131 223.305 97.4705 224.064C98.2279 224.823 98.8287 225.724 99.2386 226.716C99.6485 227.708 99.8595 228.771 99.8595 229.844V238.044H82.4297V229.844C82.4297 228.77 82.6411 227.705 83.0519 226.713C83.4627 225.72 84.0648 224.818 84.8237 224.059C85.5826 223.299 86.4834 222.698 87.4746 222.288C88.4659 221.878 89.528 221.668 90.6003 221.669V221.669Z" fill="#08BBF9"/>
<path d="M91.1096 218.821H90.8428C89.7388 218.821 88.8438 219.718 88.8438 220.824V222.161C88.8438 223.268 89.7388 224.165 90.8428 224.165H91.1096C92.2137 224.165 93.1087 223.268 93.1087 222.161V220.824C93.1087 219.718 92.2137 218.821 91.1096 218.821Z" fill="#FDA57D"/>
<path opacity="0.1" d="M85.7157 228.212C85.7157 228.212 84.8691 236.658 85.4169 237.207Z" fill="black"/>
<path opacity="0.1" d="M96.1875 228.212C96.1875 228.212 97.0341 236.658 96.4863 237.207Z" fill="black"/>
<path opacity="0.05" d="M90.973 221.398C91.7305 221.398 92.4682 221.156 93.0788 220.707C92.9985 220.205 92.7425 219.748 92.3566 219.418C91.9707 219.088 91.4802 218.907 90.973 218.906V218.906C90.4658 218.907 89.9753 219.088 89.5894 219.418C89.2035 219.748 88.9475 220.205 88.8672 220.707C89.4777 221.156 90.2155 221.398 90.973 221.398V221.398Z" fill="black"/>
<path d="M90.9744 220.643C93.2945 220.643 95.1753 218.758 95.1753 216.432C95.1753 214.107 93.2945 212.222 90.9744 212.222C88.6543 212.222 86.7734 214.107 86.7734 216.432C86.7734 218.758 88.6543 220.643 90.9744 220.643Z" fill="#444444"/>
<path d="M90.9735 221.313C92.936 221.313 94.527 219.718 94.527 217.751C94.527 215.784 92.936 214.189 90.9735 214.189C89.0109 214.189 87.4199 215.784 87.4199 217.751C87.4199 219.718 89.0109 221.313 90.9735 221.313Z" fill="#FDA57D"/>
<path opacity="0.05" d="M88.1094 214.222L89.0058 215.32C89.0058 215.32 92.9435 215.676 93.3917 214.771C93.8399 213.865 90.7985 213.22 90.7985 213.22L88.1094 214.222Z" fill="black"/>
<path d="M88.1094 214.122L89.0058 215.22C89.0058 215.22 92.9435 215.577 93.3917 214.671C93.8399 213.765 90.7985 213.12 90.7985 213.12L88.1094 214.122Z" fill="#444444"/>
<path d="M87.4131 217.969C87.5506 217.969 87.6621 217.768 87.6621 217.52C87.6621 217.271 87.5506 217.07 87.4131 217.07C87.2755 217.07 87.1641 217.271 87.1641 217.52C87.1641 217.768 87.2755 217.969 87.4131 217.969Z" fill="#FDA57D"/>
<path d="M94.542 217.969C94.6795 217.969 94.791 217.768 94.791 217.52C94.791 217.271 94.6795 217.07 94.542 217.07C94.4045 217.07 94.293 217.271 94.293 217.52C94.293 217.768 94.4045 217.969 94.542 217.969Z" fill="#FDA57D"/>
<path d="M134.803 147.538H76.7051V150.07H134.803V147.538Z" fill="white"/>
<path d="M134.803 152.601H76.7051V155.132H134.803V152.601Z" fill="white"/>
<path d="M109.544 157.664H76.7051V160.195H109.544V157.664Z" fill="white"/>
<path d="M124.701 162.73H76.7051V165.261H124.701V162.73Z" fill="white"/>
<path d="M117.121 167.792H76.7051V170.323H117.121V167.792Z" fill="white"/>
<path d="M134.803 172.855H76.7051V175.386H134.803V172.855Z" fill="white"/>
<path d="M129.752 180.452H79.2305V200.706H129.752V180.452Z" fill="white"/>
<path d="M88.5031 216.407C88.6823 216.089 88.8312 215.755 88.9477 215.409C89.1365 214.999 89.4347 214.649 89.8093 214.399C90.184 214.148 90.6204 214.006 91.0706 213.988C91.5207 213.971 91.967 214.078 92.3601 214.298C92.7531 214.519 93.0777 214.844 93.298 215.238C93.5897 215.762 93.6858 216.382 94.0095 216.889C94.0554 216.923 94.1079 216.948 94.1638 216.961C94.2197 216.974 94.2777 216.975 94.3342 216.965C94.3906 216.955 94.4443 216.933 94.4919 216.901C94.5395 216.868 94.5799 216.827 94.6106 216.778C94.6668 216.675 94.6995 216.561 94.7063 216.444C94.713 216.327 94.6937 216.209 94.6497 216.101C94.575 215.88 94.4505 215.676 94.3687 215.459C94.2871 215.105 94.1679 214.761 94.013 214.432C93.8228 214.183 93.5798 213.98 93.3016 213.837C92.5155 213.352 91.6049 212.849 90.7156 213.124C90.4155 213.227 90.1317 213.372 89.8725 213.555L88.7414 214.268C88.3776 214.472 88.0526 214.739 87.781 215.056C87.5355 215.377 87.0695 216.336 87.2865 216.75C87.5426 217.22 88.279 216.703 88.5031 216.407Z" fill="#444444"/>
<path d="M90.0781 223.894V238.059H92.1661L91.8567 223.894H90.0781Z" fill="white"/>
<path d="M89.7324 223.701L90.9418 225.466L92.2153 223.701H89.7324Z" fill="#FDA57D"/>
<defs>
<linearGradient id="paint0_linear" x1="56.3577" y1="168.164" x2="56.3577" y2="70.9025" gradientUnits="userSpaceOnUse">
<stop stop-color="#808080" stop-opacity="0.25"/>
<stop offset="0.54" stop-color="#808080" stop-opacity="0.12"/>
<stop offset="1" stop-color="#808080" stop-opacity="0.1"/>
</linearGradient>
<linearGradient id="paint1_linear" x1="3576.48" y1="9689.75" x2="3576.48" y2="8157.39" gradientUnits="userSpaceOnUse">
<stop stop-color="#808080" stop-opacity="0.25"/>
<stop offset="0.54" stop-color="#808080" stop-opacity="0.12"/>
<stop offset="1" stop-color="#808080" stop-opacity="0.1"/>
</linearGradient>
<linearGradient id="paint2_linear" x1="4167.36" y1="9823.55" x2="4167.36" y2="8670.52" gradientUnits="userSpaceOnUse">
<stop stop-color="#808080" stop-opacity="0.25"/>
<stop offset="0.54" stop-color="#808080" stop-opacity="0.12"/>
<stop offset="1" stop-color="#808080" stop-opacity="0.1"/>
</linearGradient>
<linearGradient id="paint3_linear" x1="92937.3" y1="4969.75" x2="92937.1" y2="4822.47" gradientUnits="userSpaceOnUse">
<stop stop-color="#808080" stop-opacity="0.25"/>
<stop offset="0.54" stop-color="#808080" stop-opacity="0.12"/>
<stop offset="1" stop-color="#808080" stop-opacity="0.1"/>
</linearGradient>
<linearGradient id="paint4_linear" x1="155707" y1="79535.4" x2="155707" y2="27525" gradientUnits="userSpaceOnUse">
<stop stop-color="#808080" stop-opacity="0.25"/>
<stop offset="0.54" stop-color="#808080" stop-opacity="0.12"/>
<stop offset="1" stop-color="#808080" stop-opacity="0.1"/>
</linearGradient>
<linearGradient id="paint5_linear" x1="25205" y1="8475.14" x2="25205" y2="5435.21" gradientUnits="userSpaceOnUse">
<stop stop-color="#808080" stop-opacity="0.25"/>
<stop offset="0.54" stop-color="#808080" stop-opacity="0.12"/>
<stop offset="1" stop-color="#808080" stop-opacity="0.1"/>
</linearGradient>
<linearGradient id="paint6_linear" x1="16757.4" y1="7661.29" x2="17676.3" y2="7661.29" gradientUnits="userSpaceOnUse">
<stop stop-color="#808080" stop-opacity="0.25"/>
<stop offset="0.54" stop-color="#808080" stop-opacity="0.12"/>
<stop offset="1" stop-color="#808080" stop-opacity="0.1"/>
</linearGradient>
<linearGradient id="paint7_linear" x1="25221.1" y1="12161.3" x2="25221.1" y2="9121.37" gradientUnits="userSpaceOnUse">
<stop stop-color="#808080" stop-opacity="0.25"/>
<stop offset="0.54" stop-color="#808080" stop-opacity="0.12"/>
<stop offset="1" stop-color="#808080" stop-opacity="0.1"/>
</linearGradient>
<linearGradient id="paint8_linear" x1="18353" y1="13231.7" x2="18353" y2="10684.4" gradientUnits="userSpaceOnUse">
<stop stop-color="#808080" stop-opacity="0.25"/>
<stop offset="0.54" stop-color="#808080" stop-opacity="0.12"/>
<stop offset="1" stop-color="#808080" stop-opacity="0.1"/>
</linearGradient>
<linearGradient id="paint9_linear" x1="937.431" y1="1878.87" x2="937.431" y2="0" gradientUnits="userSpaceOnUse">
<stop stop-color="#808080" stop-opacity="0.25"/>
<stop offset="0.54" stop-color="#808080" stop-opacity="0.12"/>
<stop offset="1" stop-color="#808080" stop-opacity="0.1"/>
</linearGradient>
<linearGradient id="paint10_linear" x1="44082.3" y1="129634" x2="43989.8" y2="63523.1" gradientUnits="userSpaceOnUse">
<stop stop-color="#808080" stop-opacity="0.25"/>
<stop offset="0.54" stop-color="#808080" stop-opacity="0.12"/>
<stop offset="1" stop-color="#808080" stop-opacity="0.1"/>
</linearGradient>
<linearGradient id="paint11_linear" x1="108.115" y1="259.912" x2="107.934" y2="130.849" gradientUnits="userSpaceOnUse">
<stop stop-opacity="0.09"/>
<stop offset="0.55" stop-opacity="0.07"/>
<stop offset="1" stop-opacity="0.02"/>
</linearGradient>
<linearGradient id="paint12_linear" x1="10938.6" y1="22400.8" x2="10938.6" y2="19360.8" gradientUnits="userSpaceOnUse">
<stop stop-color="#808080" stop-opacity="0.25"/>
<stop offset="0.54" stop-color="#808080" stop-opacity="0.12"/>
<stop offset="1" stop-color="#808080" stop-opacity="0.1"/>
</linearGradient>
<linearGradient id="paint13_linear" x1="8481.39" y1="19045.4" x2="9401.15" y2="19045.4" gradientUnits="userSpaceOnUse">
<stop stop-color="#808080" stop-opacity="0.25"/>
<stop offset="0.54" stop-color="#808080" stop-opacity="0.12"/>
<stop offset="1" stop-color="#808080" stop-opacity="0.1"/>
</linearGradient>
<linearGradient id="paint14_linear" x1="8091.31" y1="22367.5" x2="8091.31" y2="19327.6" gradientUnits="userSpaceOnUse">
<stop stop-color="#808080" stop-opacity="0.25"/>
<stop offset="0.54" stop-color="#808080" stop-opacity="0.12"/>
<stop offset="1" stop-color="#808080" stop-opacity="0.1"/>
</linearGradient>
<linearGradient id="paint15_linear" x1="6821.48" y1="19018.2" x2="7741.25" y2="19018.2" gradientUnits="userSpaceOnUse">
<stop stop-color="#808080" stop-opacity="0.25"/>
<stop offset="0.54" stop-color="#808080" stop-opacity="0.12"/>
<stop offset="1" stop-color="#808080" stop-opacity="0.1"/>
</linearGradient>
</defs>
</svg>
