<svg width="222" height="241" viewBox="0 0 222 241" fill="none" xmlns="http://www.w3.org/2000/svg">
<ellipse cx="123.906" cy="141.669" rx="97.5352" ry="98.7626" fill="#08BBF9"/>
<mask id="mask0" mask-type="alpha" maskUnits="userSpaceOnUse" x="26" y="42" width="196" height="199">
<ellipse cx="123.906" cy="141.669" rx="97.5352" ry="98.7626" fill="#44C4F0"/>
</mask>
<g mask="url(#mask0)">
<path fill-rule="evenodd" clip-rule="evenodd" d="M213.15 32.152C210.211 33.6161 207.352 35.0906 204.568 36.576L202.681 33.0406C205.499 31.5372 208.392 30.0456 211.362 28.5654L213.15 32.152ZM187.867 46.172C182.202 49.6848 176.903 53.2613 171.938 56.9086L169.566 53.679C174.62 49.9664 180.006 46.3315 185.755 42.7664L187.867 46.172ZM156.984 68.9716C152.059 73.3464 147.524 77.8263 143.327 82.4224L140.368 79.7203C144.66 75.0196 149.295 70.4419 154.322 65.9759L156.984 68.9716ZM131.204 97.2463C127.408 102.441 123.936 107.787 120.727 113.298L117.264 111.282C120.539 105.657 124.086 100.195 127.968 94.8823L131.204 97.2463ZM111.839 130.315C109.155 136.04 106.662 141.94 104.305 148.028L100.568 146.581C102.954 140.42 105.482 134.434 108.211 128.614L111.839 130.315ZM97.8103 166.18C95.8246 172.151 93.908 178.292 92.015 184.615L88.1762 183.466C90.0777 177.115 92.0065 170.934 94.0079 164.916L97.8103 166.18ZM82.049 219.546C81.832 220.324 81.6143 221.105 81.3958 221.889L77.5359 220.813C77.7543 220.029 77.9721 219.248 78.1892 218.469C79.7409 212.903 81.2594 207.456 82.7666 202.126L86.6226 203.217C85.1175 208.539 83.601 213.979 82.049 219.546ZM76.1506 240.563C75.2767 243.637 74.3856 246.747 73.4739 249.894L69.625 248.779C70.5345 245.64 71.4238 242.536 72.2962 239.467L76.1506 240.563Z" fill="white"/>
<path d="M179.864 111.918C195.4 110.729 210.444 76.2983 210.444 76.2983L230.031 111.918L210.444 226.668L179.864 234.157C179.864 234.157 137.892 207.847 137.092 194.692C136.293 181.537 157.479 194.692 170.07 182.954C182.662 171.216 164.328 113.106 179.864 111.918Z" fill="#0071BC"/>
<path fill-rule="evenodd" clip-rule="evenodd" d="M218.357 197.485C215.136 196.62 212.004 195.73 208.956 194.813L207.791 198.654C210.878 199.583 214.049 200.484 217.307 201.358L218.357 197.485ZM190.46 188.544C184.096 186.118 178.158 183.545 172.597 180.824L170.828 184.429C176.504 187.205 182.553 189.826 189.022 192.292L190.46 188.544ZM155.646 171.373C150.002 167.791 144.801 164.001 139.965 160.001L137.408 163.096C142.373 167.204 147.709 171.092 153.493 174.762L155.646 171.373ZM125.861 146.718C121.441 141.994 117.333 137.023 113.444 131.799L110.23 134.204C114.199 139.535 118.402 144.623 122.934 149.466L125.861 146.718ZM102.531 115.669C99.1801 110.261 95.9438 104.623 92.7429 98.7499L89.226 100.681C92.4537 106.604 95.7275 112.308 99.126 117.793L102.531 115.669ZM83.6575 81.3872C80.786 75.7204 77.8857 69.8674 74.8969 63.82L71.3065 65.6097C74.2954 71.6571 77.2035 77.5262 80.085 83.2126L83.6575 81.3872ZM66.1556 46.1883C64.7083 43.2927 63.2324 40.3579 61.7225 37.3839L58.1513 39.212C59.6567 42.1772 61.1289 45.1044 62.5732 47.9941L66.1556 46.1883Z" fill="white"/>
<path d="M48.6682 175.153C58.8807 187.2 37.107 199.154 37.107 199.154L21.251 182.592L15.3605 116.973L30.99 108.346C30.99 108.346 57.7335 116.502 60.0729 123.572C62.4123 130.643 43.581 129.825 37.6632 133.565C31.7454 137.304 48.6682 175.153 48.6682 175.153Z" fill="#0071BC"/>
</g>
<path d="M53.7643 0C24.1185 0 0 24.4628 0 54.5314C0 91.8476 48.1138 146.63 50.1622 148.944C52.0863 151.117 55.4457 151.113 57.3663 148.944C59.4148 146.63 107.529 91.8476 107.529 54.5314C107.528 24.4628 83.4098 0 53.7643 0Z" fill="#0071BC"/>
<ellipse cx="53.7687" cy="37.2412" rx="10.5148" ry="10.6689" fill="white"/>
<path d="M68.6573 62.4377C68.6573 67.7935 61.9955 83.7405 53.7778 83.7405C45.5602 83.7405 38.8984 67.7935 38.8984 62.4377C38.8984 57.082 45.5602 52.7402 53.7778 52.7402C61.9955 52.7402 68.6573 57.082 68.6573 62.4377Z" fill="white"/>
</svg>
