<svg width="317" height="204" viewBox="0 0 317 204" fill="none" xmlns="http://www.w3.org/2000/svg">
<path d="M316.956 0.638184L0.960938 0.638184L0.960938 203.016H316.956V0.638184Z" fill="#E6E6E6"/>
<path d="M307.922 26.0215L9.99805 26.0215L9.99805 191.043H307.922V26.0215Z" fill="white"/>
<path d="M316.822 0.459229L0.826172 0.459229L0.826172 13.8839L316.822 13.8839V0.459229Z" fill="#08BBF9"/>
<path d="M10.8046 9.81078C12.1787 9.81078 13.2927 8.69679 13.2927 7.32262C13.2927 5.94846 12.1787 4.83447 10.8046 4.83447C9.43039 4.83447 8.31641 5.94846 8.31641 7.32262C8.31641 8.69679 9.43039 9.81078 10.8046 9.81078Z" fill="white"/>
<path d="M20.2479 9.81078C21.6221 9.81078 22.7361 8.69679 22.7361 7.32262C22.7361 5.94846 21.6221 4.83447 20.2479 4.83447C18.8737 4.83447 17.7598 5.94846 17.7598 7.32262C17.7598 8.69679 18.8737 9.81078 20.2479 9.81078Z" fill="white"/>
<path d="M29.6913 9.81078C31.0654 9.81078 32.1794 8.69679 32.1794 7.32262C32.1794 5.94846 31.0654 4.83447 29.6913 4.83447C28.3171 4.83447 27.2031 5.94846 27.2031 7.32262C27.2031 8.69679 28.3171 9.81078 29.6913 9.81078Z" fill="white"/>
<path d="M69.4171 53.9161H39.5195V67.1495H69.4171V53.9161Z" fill="#E6E6E6"/>
<path d="M129.212 81.3629H99.3145V94.5963H129.212V81.3629Z" fill="#E6E6E6"/>
<path d="M69.4171 122.533H39.5195V135.767H69.4171V122.533Z" fill="#08BBF9"/>
<path d="M129.212 149.98H99.3145V163.214H129.212V149.98Z" fill="#08BBF9"/>
<path d="M278.21 163.704H248.312V176.937H278.21V163.704Z" fill="#08BBF9"/>
<path d="M248.314 108.81H218.416V122.043H248.314V108.81Z" fill="#E6E6E6"/>
<path d="M189.006 108.81H129.211V122.043H189.006V108.81Z" fill="#08BBF9"/>
<path d="M189.006 39.7025H129.211V52.9359H189.006V39.7025Z" fill="#08BBF9"/>
<path d="M9.62305 25.4889L9.62305 191.641H308.599V25.4889L9.62305 25.4889ZM307.619 39.2533H278.799V26.4691H307.619V39.2533ZM129.802 135.603V122.82H188.42V135.603H129.802ZM188.42 136.584V149.368H129.802V136.584H188.42ZM188.42 81.5265V94.3104H129.802V81.5265H188.42ZM129.802 80.5463V67.7621H188.42V80.5463H129.802ZM129.802 108.075V95.2907H188.42V108.075H129.802ZM188.42 109.055V121.839H129.802V109.055H188.42ZM128.821 94.3104H100.002V81.5265H128.821V94.3104ZM128.821 95.2907V108.075H100.002V95.2907H128.821ZM128.821 109.055V121.839H100.002V109.055H128.821ZM128.821 122.82V135.603H100.002V122.82H128.821ZM189.401 122.82H218.22V135.603H189.401V122.82ZM189.401 121.839V109.055H218.22V121.839H189.401ZM189.401 108.075V95.2907H218.22V108.075H189.401ZM189.401 94.3104V81.5265H218.22V94.3104H189.401ZM189.401 80.5463V67.7621H218.22V80.5463H189.401ZM189.401 66.7819V53.9977L218.22 53.9977V66.7819H189.401ZM188.42 66.7819H129.802V53.9977H188.42V66.7819ZM128.821 66.7819H100.002V53.9977H128.821V66.7819ZM128.821 67.7621V80.5463H100.002V67.7621L128.821 67.7621ZM99.0219 80.5463H70.2022V67.7621H99.0219V80.5463ZM99.0219 81.5265V94.3104H70.2022V81.5265H99.0219ZM99.0219 95.2907V108.075H70.2022V95.2907H99.0219ZM99.0219 109.055V121.839H70.2022V109.055H99.0219ZM99.0219 122.82V135.603H70.2022V122.82H99.0219ZM99.0219 136.584V149.368H70.2022V136.584H99.0219ZM100.002 136.584H128.821V149.368H100.002V136.584ZM128.821 150.348V163.132H100.002V150.348H128.821ZM129.802 150.348H188.42V163.132H129.802V150.348ZM189.401 150.348H218.22V163.132H189.401V150.348ZM189.401 149.368V136.584H218.22V149.368H189.401ZM219.2 136.584H248.02V149.368H219.2V136.584ZM219.2 135.603V122.82H248.02V135.603H219.2ZM219.2 121.839V109.055H248.02V121.839H219.2ZM219.2 108.075V95.2907H248.02V108.075H219.2ZM219.2 94.3104V81.5265H248.02V94.3104H219.2ZM219.2 80.5463V67.7621H248.02V80.5463H219.2ZM219.2 66.7819V53.9977H248.02V66.7819H219.2ZM219.2 53.0175V40.2336H248.02V53.0175H219.2ZM218.22 53.0175L189.401 53.0175V40.2336H218.22V53.0175ZM188.42 53.0175H129.802V40.2336L188.42 40.2336V53.0175ZM128.821 53.0175H100.002V40.2336H128.821V53.0175ZM99.0219 53.0175H70.2022V40.2336H99.0219V53.0175ZM99.0219 53.9977V66.7819H70.2022V53.9977H99.0219ZM69.222 66.7819H40.4028V53.9977H69.222V66.7819ZM69.222 67.7621V80.5463H40.4028V67.7621L69.222 67.7621ZM69.222 81.5265V94.3104H40.4028V81.5265H69.222ZM69.222 95.2907V108.075H40.4028V95.2907H69.222ZM69.222 109.055V121.839H40.4028V109.055H69.222ZM69.222 122.82V135.603H40.4028V122.82H69.222ZM69.222 136.584V149.368H40.4028V136.584H69.222ZM69.222 150.348V163.132H40.4028V150.348H69.222ZM70.2022 150.348H99.0219V163.132H70.2022V150.348ZM99.0219 164.112V176.897H70.2022V164.112H99.0219ZM100.002 164.112H128.821V176.897H100.002V164.112ZM129.802 164.112H188.42V176.897H129.802V164.112ZM189.401 164.112H218.22V176.897H189.401V164.112ZM219.2 164.112H248.02V176.897H219.2V164.112ZM219.2 163.132V150.348H248.02V163.132H219.2ZM249 150.348H277.819V163.132H249V150.348ZM249 149.368V136.584H277.819V149.368H249ZM249 135.603V122.82L277.819 122.82V135.603H249ZM249 121.839V109.055L277.819 109.055V121.839L249 121.839ZM249 108.075V95.2907L277.819 95.2907V108.075L249 108.075ZM249 94.3104V81.5265H277.819V94.3104L249 94.3104ZM249 80.5463V67.7621H277.819V80.5463H249ZM249 66.7819V53.9977H277.819V66.7819H249ZM249 53.0175V40.2336H277.819V53.0175H249ZM249 39.2533V26.4691H277.819V39.2533L249 39.2533ZM248.02 39.2533H219.2V26.4691H248.02V39.2533ZM218.22 39.2533H189.401V26.4691L218.22 26.4691V39.2533ZM188.42 39.2533L129.802 39.2533V26.4691H188.42V39.2533ZM128.821 39.2533H100.002V26.4691H128.821V39.2533ZM99.0219 39.2533H70.2022V26.4691L99.0219 26.4691V39.2533ZM69.222 39.2533H40.4028V26.4691H69.222V39.2533ZM69.222 40.2336V53.0175H40.4028V40.2336H69.222ZM39.4225 53.0175H10.6033V40.2336H39.4225V53.0175ZM39.4225 53.9977V66.7819H10.6033L10.6033 53.9977H39.4225ZM39.4225 67.7621V80.5463H10.6033V67.7621L39.4225 67.7621ZM39.4225 81.5265V94.3104H10.6033V81.5265H39.4225ZM39.4225 95.2907V108.075H10.6033V95.2907H39.4225ZM39.4225 109.055V121.839H10.6033L10.6033 109.055H39.4225ZM39.4225 122.82V135.603H10.6033V122.82H39.4225ZM39.4225 136.584V149.368H10.6033V136.584H39.4225ZM39.4225 150.348V163.132H10.6033V150.348H39.4225ZM39.4225 164.112V176.897H10.6033V164.112H39.4225ZM40.4028 164.112H69.222V176.897H40.4028V164.112ZM69.222 177.877V190.661H40.4028V177.877H69.222ZM70.2022 177.877H99.0219V190.661H70.2022V177.877ZM100.002 177.877H128.821V190.661H100.002V177.877ZM129.802 177.877H188.42V190.661H129.802V177.877ZM189.401 177.877H218.22V190.661H189.401V177.877ZM219.2 177.877H248.02V190.661H219.2V177.877ZM249 177.877H277.819V190.661H249V177.877ZM249 176.897V164.112H277.819V176.897H249ZM278.799 164.112H307.619V176.897H278.799V164.112ZM278.799 163.132V150.348H307.619V163.132H278.799ZM278.799 149.368V136.584H307.619V149.368H278.799ZM278.799 135.603V122.82H307.619V135.603H278.799ZM278.799 121.839V109.055H307.619V121.839H278.799ZM278.799 108.075V95.2907H307.619V108.075H278.799ZM278.799 94.3104V81.5265H307.619V94.3104H278.799ZM278.799 80.5463V67.7621H307.619V80.5463H278.799ZM278.799 66.7819V53.9977H307.619V66.7819H278.799ZM278.799 53.0175V40.2336H307.619V53.0175H278.799ZM39.4225 26.4691V39.2533H10.6033V26.4691H39.4225ZM10.6033 177.877H39.4225V190.661H10.6033L10.6033 177.877ZM278.799 190.661V177.877H307.619V190.661H278.799Z" fill="#E6E6E6"/>
</svg>
