<svg width="233" height="233" viewBox="0 0 233 233" fill="none" xmlns="http://www.w3.org/2000/svg">
<path d="M0.0664062 53.1175C0.0664062 23.8186 23.8179 0.0671387 53.1169 0.0671387L178.987 0.0671387C208.286 0.0671387 232.038 23.8186 232.038 53.1176V178.988C232.038 208.287 208.286 232.038 178.987 232.038H53.1168C23.8178 232.038 0.0664062 208.287 0.0664062 178.988L0.0664062 53.1175Z" fill="#43D4FF"/>
<path d="M194.177 107.64C194.177 140.166 163.873 168.337 131.678 168.337C99.4839 168.337 42.7369 169.013 42.7369 136.486C34.7497 136.486 60.1629 147.904 64.9706 81.1977C79.5296 62.5104 97.9401 50.5487 131.678 50.5487C163.873 50.5487 194.177 75.1137 194.177 107.64Z" fill="white"/>
<ellipse cx="144.301" cy="173.145" rx="7.21154" ry="7.21153" fill="#556C73"/>
<ellipse cx="86.608" cy="173.145" rx="7.21154" ry="7.21154" fill="#556C73"/>
<path d="M116.187 94.3776C116.187 98.9151 112.509 102.594 107.971 102.594C103.435 102.594 99.7559 98.9151 99.7559 94.3776C99.7559 89.8401 103.435 86.1632 107.971 86.1632C112.509 86.1632 116.187 89.8392 116.187 94.3776Z" fill="#303030"/>
<path d="M154.57 94.3778C154.57 98.9153 150.892 102.594 146.354 102.594C141.818 102.594 138.139 98.9153 138.139 94.3778C138.139 89.8403 141.818 86.1633 146.354 86.1633C150.892 86.1633 154.57 89.8393 154.57 94.3778Z" fill="#303030"/>
<path d="M126.87 138.43C112.949 138.43 100.409 129.303 98.109 117.355C97.6629 115.036 99.1821 112.793 101.501 112.347C103.822 111.9 106.064 113.42 106.51 115.739C107.862 122.762 116.272 130.158 127.481 129.865C139.158 129.559 146.871 122.577 148.455 115.838C148.996 113.539 151.302 112.115 153.599 112.654C155.9 113.195 157.325 115.498 156.784 117.797C155.49 123.298 151.947 128.394 146.808 132.149C141.455 136.062 134.848 138.23 127.706 138.418C127.427 138.427 127.147 138.43 126.87 138.43Z" fill="#303030"/>
<path d="M197.397 98.8373C195.816 89.5007 192.108 80.7498 186.374 72.8267C179.897 63.8777 171.036 56.4055 160.751 51.219C150.354 45.9767 138.751 43.2046 127.193 43.2046C123.932 43.2046 120.646 43.4257 117.424 43.8604C103.929 45.6834 90.6612 51.2969 80.0621 59.6671C68.1198 69.0979 60.4131 81.2229 57.7766 94.7334C56.991 98.7498 56.6564 103.193 56.3323 107.489C55.8246 114.214 55.2996 121.168 53.1612 125.712C51.6996 128.818 49.5189 130.886 43.6237 130.886C40.3794 130.886 37.415 132.721 35.967 135.625C34.5198 138.529 34.8391 142.001 36.791 144.59C45.6727 156.373 57.2631 163.509 69.466 167.809C68.9102 169.488 68.5977 171.276 68.5977 173.141C68.5977 182.51 76.1929 190.106 85.5621 190.106C94.6996 190.106 102.128 182.877 102.491 173.829C106.469 174.045 125.41 174.097 127.523 174.037C127.991 182.988 135.376 190.106 144.442 190.106C153.81 190.106 161.405 182.511 161.405 173.141C161.405 171.006 160.994 168.97 160.275 167.088C166.927 163.853 173.205 159.486 178.684 154.228C186.325 146.896 191.932 138.246 194.903 129.212C198.247 119.045 199.087 108.825 197.397 98.8373ZM85.5621 178.739C82.4708 178.739 79.9641 176.234 79.9641 173.141C79.9641 170.05 82.4708 167.543 85.5621 167.543C88.6544 167.543 91.1602 170.05 91.1602 173.141C91.1602 176.234 88.6544 178.739 85.5621 178.739ZM144.442 178.739C141.35 178.739 138.843 176.234 138.843 173.141C138.843 170.05 141.35 167.543 144.442 167.543C147.534 167.543 150.04 170.05 150.04 173.141C150.041 176.234 147.534 178.739 144.442 178.739ZM186.777 126.54C181.877 141.434 168.965 153.733 155.204 160.031C152.275 157.623 148.528 156.179 144.443 156.179C137.858 156.179 132.163 159.934 129.353 165.416C126.491 165.534 105.184 165.461 100.522 165.142C97.6641 159.808 92.0391 156.179 85.5631 156.179C81.2554 156.179 77.3333 157.796 74.3429 160.442C62.7525 156.697 51.8064 150.297 43.6246 139.44C67.8179 139.44 63.0439 112.404 66.1737 96.3709C70.9419 71.9363 95.115 55.5065 118.569 52.3382C121.453 51.9488 124.338 51.7594 127.193 51.7594C165.74 51.7604 200.052 86.1757 186.777 126.54Z" fill="#303030"/>
</svg>
